%FSTAX23Y23*%
%MOIN*%
%SFA1B1*%

%IPPOS*%
%ADD13C,0.010000*%
%ADD14C,0.059000*%
%ADD15R,0.059000X0.059000*%
%ADD16C,0.150000*%
%ADD17R,0.118000X0.118000*%
%ADD18C,0.118000*%
%ADD19C,0.141000*%
%ADD20R,0.114000X0.114000*%
%ADD21C,0.114000*%
%ADD22R,0.059000X0.059000*%
%LNovenpi-1*%
%LPD*%
G36*
X0251Y04281D02*
X01744Y03515D01*
X01015*
Y04985*
X0251*
Y04281*
G37*
%LNovenpi-2*%
%LPC*%
G36*
X02295Y04395D02*
X02261D01*
Y0439*
X02265Y0438*
X02272Y04372*
X0228Y04365*
X0229Y04361*
X02295*
Y04395*
G37*
G36*
X02339D02*
X02305D01*
Y04361*
X0231*
X0232Y04365*
X02328Y04372*
X02335Y0438*
X02339Y0439*
Y04395*
G37*
G36*
X01632Y04437D02*
X01618Y04435D01*
X01605Y04431*
X01593Y04425*
X01583Y04416*
X01574Y04406*
X01568Y04394*
X01564Y04381*
X01563Y04367*
X01564Y04354*
X01568Y04341*
X01574Y04329*
X01583Y04318*
X01593Y0431*
X01605Y04303*
X01618Y04299*
X01632Y04298*
X01645Y04299*
X01658Y04303*
X0167Y0431*
X01681Y04318*
X0169Y04329*
X01696Y04341*
X017Y04354*
X01701Y04367*
X017Y04381*
X01696Y04394*
X0169Y04406*
X01681Y04416*
X0167Y04425*
X01658Y04431*
X01645Y04435*
X01632Y04437*
G37*
G36*
X01484Y04436D02*
X01346D01*
Y04298*
X01484*
Y04436*
G37*
G36*
X01128Y04535D02*
X01111Y04534D01*
X01095Y04529*
X01081Y04521*
X01068Y0451*
X01057Y04497*
X01049Y04483*
X01044Y04467*
X01043Y0445*
X01044Y04433*
X01049Y04417*
X01057Y04403*
X01068Y0439*
X01081Y04379*
X01095Y04371*
X01111Y04366*
X01128Y04365*
X01145Y04366*
X01161Y04371*
X01175Y04379*
X01188Y0439*
X01199Y04403*
X01207Y04417*
X01212Y04433*
X01213Y0445*
X01212Y04467*
X01207Y04483*
X01199Y04497*
X01188Y0451*
X01175Y04521*
X01161Y04529*
X01145Y04534*
X01128Y04535*
G37*
G36*
X01632Y04602D02*
X01618Y04601D01*
X01605Y04597*
X01593Y0459*
X01583Y04582*
X01574Y04571*
X01568Y04559*
X01564Y04546*
X01563Y04533*
X01564Y04519*
X01568Y04506*
X01574Y04494*
X01583Y04484*
X01593Y04475*
X01605Y04469*
X01618Y04465*
X01632Y04463*
X01645Y04465*
X01658Y04469*
X0167Y04475*
X01681Y04484*
X0169Y04494*
X01696Y04506*
X017Y04519*
X01701Y04533*
X017Y04546*
X01696Y04559*
X0169Y04571*
X01681Y04582*
X0167Y0459*
X01658Y04597*
X01645Y04601*
X01632Y04602*
G37*
G36*
X0141Y04528D02*
X01346D01*
X01347Y04519*
X01351Y04506*
X01358Y04494*
X01366Y04484*
X01377Y04475*
X01389Y04469*
X01402Y04465*
X0141Y04464*
Y04528*
G37*
G36*
X02295Y04439D02*
X0229D01*
X0228Y04435*
X02272Y04428*
X02265Y0442*
X02261Y0441*
Y04405*
X02295*
Y04439*
G37*
G36*
X02305D02*
Y04405D01*
X02339*
Y0441*
X02335Y0442*
X02328Y04428*
X0232Y04435*
X0231Y04439*
X02305*
G37*
G36*
X01485Y03717D02*
X01351D01*
Y03583*
X01485*
Y03717*
G37*
G36*
X01131Y04081D02*
X01115Y04079D01*
X011Y04075*
X01086Y04067*
X01074Y04057*
X01064Y04045*
X01056Y04031*
X01051Y04016*
X0105Y04*
X01051Y03984*
X01056Y03969*
X01064Y03955*
X01074Y03943*
X01086Y03933*
X011Y03925*
X01115Y03921*
X01131Y03919*
X01146Y03921*
X01162Y03925*
X01176Y03933*
X01188Y03943*
X01198Y03955*
X01205Y03969*
X0121Y03984*
X01212Y04*
X0121Y04016*
X01205Y04031*
X01198Y04045*
X01188Y04057*
X01176Y04067*
X01162Y04075*
X01146Y04079*
X01131Y04081*
G37*
G36*
Y03731D02*
X01115Y03729D01*
X011Y03725*
X01086Y03717*
X01074Y03707*
X01064Y03695*
X01056Y03681*
X01051Y03666*
X0105Y0365*
X01051Y03634*
X01056Y03619*
X01064Y03605*
X01074Y03593*
X01086Y03583*
X011Y03575*
X01115Y03571*
X01131Y03569*
X01146Y03571*
X01162Y03575*
X01176Y03583*
X01188Y03593*
X01198Y03605*
X01205Y03619*
X0121Y03634*
X01212Y0365*
X0121Y03666*
X01205Y03681*
X01198Y03695*
X01188Y03707*
X01176Y03717*
X01162Y03725*
X01146Y03729*
X01131Y03731*
G37*
G36*
X01635Y03717D02*
X01621Y03716D01*
X01609Y03712*
X01597Y03706*
X01587Y03698*
X01579Y03687*
X01572Y03676*
X01569Y03663*
X01567Y0365*
X01569Y03637*
X01572Y03624*
X01579Y03613*
X01587Y03602*
X01597Y03594*
X01609Y03588*
X01621Y03584*
X01635Y03583*
X01648Y03584*
X0166Y03588*
X01672Y03594*
X01682Y03602*
X01691Y03613*
X01697Y03624*
X01701Y03637*
X01702Y0365*
X01701Y03663*
X01697Y03676*
X01691Y03687*
X01682Y03698*
X01672Y03706*
X0166Y03712*
X01648Y03716*
X01635Y03717*
G37*
G36*
X01485Y04067D02*
X01351D01*
Y03933*
X01485*
Y04067*
G37*
G36*
X0163D02*
X01621Y04066D01*
X01609Y04062*
X01597Y04056*
X01587Y04048*
X01579Y04037*
X01572Y04026*
X01569Y04013*
X01568Y04005*
X0163*
Y04067*
G37*
G36*
X0164D02*
Y04005D01*
X01702*
X01701Y04013*
X01697Y04026*
X01691Y04037*
X01682Y04048*
X01672Y04056*
X0166Y04062*
X01648Y04066*
X0164Y04067*
G37*
G36*
X0163Y03995D02*
X01568D01*
X01569Y03987*
X01572Y03974*
X01579Y03963*
X01587Y03952*
X01597Y03944*
X01609Y03938*
X01621Y03934*
X0163Y03933*
Y03995*
G37*
G36*
X01702D02*
X0164D01*
Y03933*
X01648Y03934*
X0166Y03938*
X01672Y03944*
X01682Y03952*
X01691Y03963*
X01697Y03974*
X01701Y03987*
X01702Y03995*
G37*
G36*
X01484Y04528D02*
X0142D01*
Y04464*
X01429Y04465*
X01442Y04469*
X01454Y04475*
X01464Y04484*
X01473Y04494*
X01479Y04506*
X01483Y04519*
X01484Y04528*
G37*
G36*
X0225Y0494D02*
X0224Y04939D01*
X0223Y04935*
X02222Y04928*
X02215Y0492*
X02211Y0491*
X0221Y049*
X02211Y0489*
X02215Y0488*
X02222Y04872*
X0223Y04865*
X0224Y04861*
X0225Y0486*
X0226Y04861*
X0227Y04865*
X02278Y04872*
X02285Y0488*
X02289Y0489*
X0229Y049*
X02289Y0491*
X02285Y0492*
X02278Y04928*
X0227Y04935*
X0226Y04939*
X0225Y0494*
G37*
G36*
X0235D02*
X0234Y04939D01*
X0233Y04935*
X02322Y04928*
X02315Y0492*
X02311Y0491*
X0231Y049*
X02311Y0489*
X02315Y0488*
X02322Y04872*
X0233Y04865*
X0234Y04861*
X0235Y0486*
X0236Y04861*
X0237Y04865*
X02378Y04872*
X02385Y0488*
X02389Y0489*
X0239Y049*
X02389Y0491*
X02385Y0492*
X02378Y04928*
X0237Y04935*
X0236Y04939*
X0235Y0494*
G37*
G36*
X0125D02*
X0124Y04939D01*
X0123Y04935*
X01222Y04928*
X01215Y0492*
X01211Y0491*
X0121Y049*
X01211Y0489*
X01215Y0488*
X01222Y04872*
X0123Y04865*
X0124Y04861*
X0125Y0486*
X0126Y04861*
X0127Y04865*
X01278Y04872*
X01285Y0488*
X01289Y0489*
X0129Y049*
X01289Y0491*
X01285Y0492*
X01278Y04928*
X0127Y04935*
X0126Y04939*
X0125Y0494*
G37*
G36*
X0215D02*
X0214Y04939D01*
X0213Y04935*
X02122Y04928*
X02115Y0492*
X02111Y0491*
X0211Y049*
X02111Y0489*
X02115Y0488*
X02122Y04872*
X0213Y04865*
X0214Y04861*
X0215Y0486*
X0216Y04861*
X0217Y04865*
X02178Y04872*
X02185Y0488*
X02189Y0489*
X0219Y049*
X02189Y0491*
X02185Y0492*
X02178Y04928*
X0217Y04935*
X0216Y04939*
X0215Y0494*
G37*
G36*
X01345Y04895D02*
X01311D01*
Y0489*
X01315Y0488*
X01322Y04872*
X0133Y04865*
X0134Y04861*
X01345*
Y04895*
G37*
G36*
X01355Y04939D02*
Y04905D01*
X01389*
Y0491*
X01385Y0492*
X01378Y04928*
X0137Y04935*
X0136Y04939*
X01355*
G37*
G36*
X01963Y04965D02*
X015D01*
X01494Y04964*
X01489Y04961*
X01465Y04937*
X0146Y04939*
X0145Y0494*
X0144Y04939*
X0143Y04935*
X01422Y04928*
X01415Y0492*
X01411Y0491*
X0141Y049*
X01411Y0489*
X01415Y0488*
X01422Y04872*
X0143Y04865*
X0144Y04861*
X0145Y0486*
X0146Y04861*
X0147Y04865*
X01478Y04872*
X01485Y0488*
X01489Y0489*
X0149Y049*
X01489Y0491*
X01487Y04915*
X01506Y04935*
X01522*
X01524Y0493*
X01522Y04928*
X01515Y0492*
X01511Y0491*
X0151Y049*
X01511Y0489*
X01515Y0488*
X01522Y04872*
X0153Y04865*
X0154Y04861*
X0155Y0486*
X0156Y04861*
X0157Y04865*
X01578Y04872*
X01582Y04877*
X01588*
X01621Y04845*
X01626Y04841*
X01627*
X0163Y04835*
X01622Y04828*
X01615Y0482*
X01611Y0481*
X0161Y048*
X01611Y0479*
X01615Y0478*
X01622Y04772*
X0163Y04765*
X0164Y04761*
X0165Y0476*
X0166Y04761*
X0167Y04765*
X01678Y04772*
X01685Y0478*
X01689Y0479*
X0169Y048*
X01689Y0481*
X01685Y0482*
X01678Y04828*
X0167Y04835*
X01668*
X01669Y0484*
X01731*
X01732Y04835*
X0173*
X01722Y04828*
X01715Y0482*
X01711Y0481*
X0171Y048*
X01711Y0479*
X01715Y0478*
X01722Y04772*
X0173Y04765*
X0174Y04761*
X0175Y0476*
X0176Y04761*
X0177Y04765*
X01778Y04772*
X01785Y0478*
X01789Y0479*
X0179Y048*
X01789Y0481*
X01785Y0482*
X01778Y04828*
X0177Y04835*
X01768*
X01769Y0484*
X01831*
X01832Y04835*
X0183*
X01822Y04828*
X01815Y0482*
X01811Y0481*
X0181Y048*
X01811Y0479*
X01815Y0478*
X01822Y04772*
X0183Y04765*
X0184Y04761*
X0185Y0476*
X0186Y04761*
X0187Y04765*
X01878Y04772*
X01885Y0478*
X01889Y0479*
X0189Y048*
X01889Y0481*
X01885Y0482*
X01878Y04828*
X0187Y04835*
X01868*
X01869Y0484*
X01931*
X01932Y04835*
X0193*
X01922Y04828*
X01915Y0482*
X01911Y0481*
X0191Y048*
X01911Y0479*
X01915Y0478*
X01922Y04772*
X0193Y04765*
X0194Y04761*
X0195Y0476*
X0196Y04761*
X0197Y04765*
X01978Y04772*
X01985Y0478*
X01991Y04777*
Y04776*
X01995Y04771*
X02021Y04745*
X02026Y04741*
X02032Y0474*
X02038*
X02263Y04515*
X02261Y0451*
X0226Y045*
X02261Y0449*
X02265Y0448*
X02272Y04472*
X0228Y04465*
X0229Y04461*
X023Y0446*
X0231Y04461*
X0232Y04465*
X02328Y04472*
X02335Y0448*
X02339Y0449*
X0234Y045*
X02339Y0451*
X02335Y0452*
X02328Y04528*
X0232Y04535*
X0231Y04539*
X023Y0454*
X0229Y04539*
X02285Y04537*
X02266Y04556*
X02268Y0456*
X0234*
Y0464*
X02282*
X02164Y04758*
X02165Y04764*
X0217Y04765*
X02178Y04772*
X02185Y0478*
X02189Y0479*
X0219Y048*
X02189Y0481*
X02185Y0482*
X02178Y04828*
X0217Y04835*
X0216Y04839*
X0215Y0484*
X0214Y04839*
X0213Y04835*
X02122Y04828*
X02118Y04823*
X02112*
X02079Y04855*
X02074Y04859*
X02073*
X0207Y04865*
X02078Y04872*
X02085Y0488*
X02089Y0489*
X0209Y049*
X02089Y0491*
X02085Y0492*
X02078Y04928*
X0207Y04935*
X0206Y04939*
X0205Y0494*
X0204Y04939*
X0203Y04935*
X02022Y04928*
X02018Y04923*
X02012*
X01974Y04961*
X01969Y04964*
X01963Y04965*
G37*
G36*
X01389Y04895D02*
X01355D01*
Y04861*
X0136*
X0137Y04865*
X01378Y04872*
X01385Y0488*
X01389Y0489*
Y04895*
G37*
G36*
X01345Y04939D02*
X0134D01*
X0133Y04935*
X01322Y04928*
X01315Y0492*
X01311Y0491*
Y04905*
X01345*
Y04939*
G37*
G36*
X0115Y0494D02*
X0114Y04939D01*
X0113Y04935*
X01122Y04928*
X01115Y0492*
X01111Y0491*
X0111Y049*
X01111Y0489*
X01115Y0488*
X01122Y04872*
X0113Y04865*
X0114Y04861*
X0115Y0486*
X0116Y04861*
X0117Y04865*
X01178Y04872*
X01185Y0488*
X01189Y0489*
X0119Y049*
X01189Y0491*
X01185Y0492*
X01178Y04928*
X0117Y04935*
X0116Y04939*
X0115Y0494*
G37*
G36*
X0125Y0484D02*
X0124Y04839D01*
X0123Y04835*
X01222Y04828*
X01215Y0482*
X01211Y0481*
X0121Y048*
X01211Y0479*
X01215Y0478*
X01222Y04772*
X0123Y04765*
X0124Y04761*
X0125Y0476*
X0126Y04761*
X0127Y04765*
X01278Y04772*
X01285Y0478*
X01289Y0479*
X0129Y048*
X01289Y0481*
X01285Y0482*
X01278Y04828*
X0127Y04835*
X0126Y04839*
X0125Y0484*
G37*
G36*
X0135D02*
X0134Y04839D01*
X0133Y04835*
X01322Y04828*
X01315Y0482*
X01311Y0481*
X0131Y048*
X01311Y0479*
X01315Y0478*
X01322Y04772*
X0133Y04765*
X0134Y04761*
X0135Y0476*
X0136Y04761*
X0137Y04765*
X01378Y04772*
X01385Y0478*
X01389Y0479*
X0139Y048*
X01389Y0481*
X01385Y0482*
X01378Y04828*
X0137Y04835*
X0136Y04839*
X0135Y0484*
G37*
G36*
X0141Y04602D02*
X01402Y04601D01*
X01389Y04597*
X01377Y0459*
X01366Y04582*
X01358Y04571*
X01351Y04559*
X01347Y04546*
X01346Y04538*
X0141*
Y04602*
G37*
G36*
X0142D02*
Y04538D01*
X01484*
X01483Y04546*
X01479Y04559*
X01473Y04571*
X01464Y04582*
X01454Y0459*
X01442Y04597*
X01429Y04601*
X0142Y04602*
G37*
G36*
X0145Y0484D02*
X0144Y04839D01*
X0143Y04835*
X01422Y04828*
X01415Y0482*
X01411Y0481*
X0141Y048*
X01411Y0479*
X01415Y0478*
X01422Y04772*
X0143Y04765*
X0144Y04761*
X0145Y0476*
X0146Y04761*
X0147Y04765*
X01478Y04772*
X01485Y0478*
X01489Y0479*
X0149Y048*
X01489Y0481*
X01485Y0482*
X01478Y04828*
X0147Y04835*
X0146Y04839*
X0145Y0484*
G37*
G36*
X0235D02*
X0234Y04839D01*
X0233Y04835*
X02322Y04828*
X02315Y0482*
X02311Y0481*
X0231Y048*
X02311Y0479*
X02315Y0478*
X02322Y04772*
X0233Y04765*
X0234Y04761*
X0235Y0476*
X0236Y04761*
X0237Y04765*
X02378Y04772*
X02385Y0478*
X02389Y0479*
X0239Y048*
X02389Y0481*
X02385Y0482*
X02378Y04828*
X0237Y04835*
X0236Y04839*
X0235Y0484*
G37*
G36*
X0119D02*
X0111D01*
Y0476*
X0119*
Y0484*
G37*
G36*
X0155D02*
X0154Y04839D01*
X0153Y04835*
X01522Y04828*
X01515Y0482*
X01511Y0481*
X0151Y048*
X01511Y0479*
X01515Y0478*
X01522Y04772*
X0153Y04765*
X0154Y04761*
X0155Y0476*
X0156Y04761*
X0157Y04765*
X01578Y04772*
X01585Y0478*
X01589Y0479*
X0159Y048*
X01589Y0481*
X01585Y0482*
X01578Y04828*
X0157Y04835*
X0156Y04839*
X0155Y0484*
G37*
G36*
X0225D02*
X0224Y04839D01*
X0223Y04835*
X02222Y04828*
X02215Y0482*
X02211Y0481*
X0221Y048*
X02211Y0479*
X02215Y0478*
X02222Y04772*
X0223Y04765*
X0224Y04761*
X0225Y0476*
X0226Y04761*
X0227Y04765*
X02278Y04772*
X02285Y0478*
X02289Y0479*
X0229Y048*
X02289Y0481*
X02285Y0482*
X02278Y04828*
X0227Y04835*
X0226Y04839*
X0225Y0484*
G37*
%LNovenpi-3*%
%LPD*%
G54D13*
X0145Y049D02*
X015Y0495D01*
X01963*
X02005Y04907*
Y04882D02*
Y04907D01*
Y04882D02*
X02043Y04845D01*
X02068*
X02105Y04807*
Y04782D02*
Y04807D01*
Y04782D02*
X02132Y04755D01*
X02145*
X023Y046*
X0155Y049D02*
X01587D01*
X01632Y04855*
X01957*
X02005Y04807*
Y04782D02*
Y04807D01*
Y04782D02*
X02032Y04755D01*
X02045*
X023Y045*
G54D14*
X023Y044D03*
Y045D03*
X0115Y049D03*
X0125Y048D03*
Y049D03*
X0135Y048D03*
Y049D03*
X0145Y048D03*
Y049D03*
X0155Y048D03*
Y049D03*
X0165Y048D03*
Y049D03*
X0175Y048D03*
Y049D03*
X0185Y048D03*
Y049D03*
X0195Y048D03*
Y049D03*
X0205Y048D03*
Y049D03*
X0215Y048D03*
Y049D03*
X0225Y048D03*
Y049D03*
X0235Y048D03*
Y049D03*
G54D15*
X023Y046D03*
G54D16*
X01128Y0445D03*
G54D17*
X01415Y04367D03*
G54D18*
X01632Y04367D03*
X01415Y04533D03*
X01632D03*
G54D19*
X01131Y04D03*
Y0365D03*
G54D20*
X01418Y04D03*
Y0365D03*
G54D21*
X01635Y04D03*
Y0365D03*
G54D22*
X0115Y048D03*
M02*