%FSTAX23Y23*%
%MOIN*%
%SFA1B1*%

%IPPOS*%
%ADD10O,0.024000X0.087000*%
%ADD11R,0.038000X0.039000*%
%ADD12R,0.039000X0.038000*%
%ADD13C,0.010000*%
%ADD14C,0.059000*%
%ADD15R,0.059000X0.059000*%
%ADD16C,0.150000*%
%ADD17R,0.118000X0.118000*%
%ADD18C,0.118000*%
%ADD19C,0.141000*%
%ADD20R,0.114000X0.114000*%
%ADD21C,0.114000*%
%ADD22R,0.059000X0.059000*%
%LNovenpi-1*%
%LPD*%
G36*
X0251Y04281D02*
X01744Y03515D01*
X01015*
Y04985*
X0251*
Y04281*
G37*
%LNovenpi-2*%
%LPC*%
G36*
X0234Y0464D02*
X0226D01*
Y0456*
X0234*
Y0464*
G37*
G36*
X023Y0454D02*
X0229Y04539D01*
X0228Y04535*
X02272Y04528*
X02265Y0452*
X02261Y0451*
X0226Y045*
X02261Y0449*
X02265Y0448*
X02272Y04472*
X0228Y04465*
X0229Y04461*
X023Y0446*
X0231Y04461*
X0232Y04465*
X02328Y04472*
X02335Y0448*
X02339Y0449*
X0234Y045*
X02339Y0451*
X02335Y0452*
X02328Y04528*
X0232Y04535*
X0231Y04539*
X023Y0454*
G37*
G36*
X01128Y04535D02*
X01111Y04534D01*
X01095Y04529*
X01081Y04521*
X01068Y0451*
X01057Y04497*
X01049Y04483*
X01044Y04467*
X01043Y0445*
X01044Y04433*
X01049Y04417*
X01057Y04403*
X01068Y0439*
X01081Y04379*
X01095Y04371*
X01111Y04366*
X01128Y04365*
X01145Y04366*
X01161Y04371*
X01175Y04379*
X01188Y0439*
X01199Y04403*
X01207Y04417*
X01212Y04433*
X01213Y0445*
X01212Y04467*
X01207Y04483*
X01199Y04497*
X01188Y0451*
X01175Y04521*
X01161Y04529*
X01145Y04534*
X01128Y04535*
G37*
G36*
X0145Y0484D02*
X0144Y04839D01*
X0143Y04835*
X01422Y04828*
X01415Y0482*
X01411Y0481*
X0141Y048*
X01411Y0479*
X01415Y0478*
X01422Y04772*
X0143Y04765*
X0144Y04761*
X0145Y0476*
X0146Y04761*
X0147Y04765*
X01478Y04772*
X01485Y0478*
X01489Y0479*
X0149Y048*
X01489Y0481*
X01485Y0482*
X01478Y04828*
X0147Y04835*
X0146Y04839*
X0145Y0484*
G37*
G36*
X0195D02*
X0194Y04839D01*
X0193Y04835*
X01922Y04828*
X01915Y0482*
X01911Y0481*
X0191Y048*
X01911Y0479*
X01915Y0478*
X01922Y04772*
X0193Y04765*
X0194Y04761*
X0195Y0476*
X0196Y04761*
X0197Y04765*
X01978Y04772*
X01985Y0478*
X01989Y0479*
X0199Y048*
X01989Y0481*
X01985Y0482*
X01978Y04828*
X0197Y04835*
X0196Y04839*
X0195Y0484*
G37*
G36*
X0185D02*
X0184Y04839D01*
X0183Y04835*
X01822Y04828*
X01815Y0482*
X01811Y0481*
X0181Y048*
X01811Y0479*
X01815Y0478*
X01822Y04772*
X0183Y04765*
X0184Y04761*
X0185Y0476*
X0186Y04761*
X0187Y04765*
X01878Y04772*
X01885Y0478*
X01889Y0479*
X0189Y048*
X01889Y0481*
X01885Y0482*
X01878Y04828*
X0187Y04835*
X0186Y04839*
X0185Y0484*
G37*
G36*
X0175D02*
X0174Y04839D01*
X0173Y04835*
X01722Y04828*
X01715Y0482*
X01711Y0481*
X0171Y048*
X01711Y0479*
X01715Y0478*
X01722Y04772*
X0173Y04765*
X0174Y04761*
X0175Y0476*
X0176Y04761*
X0177Y04765*
X01778Y04772*
X01785Y0478*
X01789Y0479*
X0179Y048*
X01789Y0481*
X01785Y0482*
X01778Y04828*
X0177Y04835*
X0176Y04839*
X0175Y0484*
G37*
G36*
X023Y0444D02*
X0229Y04439D01*
X0228Y04435*
X02272Y04428*
X02265Y0442*
X02261Y0441*
X0226Y044*
X02261Y0439*
X02265Y0438*
X02272Y04372*
X0228Y04365*
X0229Y04361*
X023Y0436*
X0231Y04361*
X0232Y04365*
X02328Y04372*
X02335Y0438*
X02339Y0439*
X0234Y044*
X02339Y0441*
X02335Y0442*
X02328Y04428*
X0232Y04435*
X0231Y04439*
X023Y0444*
G37*
G36*
X02029Y03864D02*
X02005D01*
Y03839*
X02029*
Y03864*
G37*
G36*
X01995D02*
X01971D01*
Y03839*
X01995*
Y03864*
G37*
G36*
X01131Y03731D02*
X01115Y03729D01*
X011Y03725*
X01086Y03717*
X01074Y03707*
X01064Y03695*
X01056Y03681*
X01051Y03666*
X0105Y0365*
X01051Y03634*
X01056Y03619*
X01064Y03605*
X01074Y03593*
X01086Y03583*
X011Y03575*
X01115Y03571*
X01131Y03569*
X01146Y03571*
X01162Y03575*
X01176Y03583*
X01188Y03593*
X01198Y03605*
X01205Y03619*
X0121Y03634*
X01212Y0365*
X0121Y03666*
X01205Y03681*
X01198Y03695*
X01188Y03707*
X01176Y03717*
X01162Y03725*
X01146Y03729*
X01131Y03731*
G37*
G36*
Y04081D02*
X01115Y04079D01*
X011Y04075*
X01086Y04067*
X01074Y04057*
X01064Y04045*
X01056Y04031*
X01051Y04016*
X0105Y04*
X01051Y03984*
X01056Y03969*
X01064Y03955*
X01074Y03943*
X01086Y03933*
X011Y03925*
X01115Y03921*
X01131Y03919*
X01146Y03921*
X01162Y03925*
X01176Y03933*
X01188Y03943*
X01198Y03955*
X01205Y03969*
X0121Y03984*
X01212Y04*
X0121Y04016*
X01205Y04031*
X01198Y04045*
X01188Y04057*
X01176Y04067*
X01162Y04075*
X01146Y04079*
X01131Y04081*
G37*
G36*
X01775Y04323D02*
X01766Y04322D01*
X01759Y04317*
X01754Y04309*
X01753Y04301*
Y04238*
X01754Y04229*
X01759Y04222*
X01766Y04217*
X01775Y04216*
X01784Y04217*
X01791Y04222*
X01796Y04229*
X01797Y04238*
Y04301*
X01796Y04309*
X01791Y04317*
X01784Y04322*
X01775Y04323*
G37*
G36*
X01947Y04076D02*
X0193D01*
Y04028*
X01934*
X01941Y04033*
X01946Y04041*
X01947Y04049*
Y04076*
G37*
G36*
X0192D02*
X01903D01*
Y04049*
X01904Y04041*
X01909Y04033*
X01916Y04028*
X0192*
Y04076*
G37*
G36*
X0175Y0494D02*
X0174Y04939D01*
X0173Y04935*
X01722Y04928*
X01715Y0492*
X01711Y0491*
X0171Y049*
X01711Y0489*
X01715Y0488*
X01722Y04872*
X0173Y04865*
X0174Y04861*
X0175Y0486*
X0176Y04861*
X0177Y04865*
X01778Y04872*
X01785Y0488*
X01789Y0489*
X0179Y049*
X01789Y0491*
X01785Y0492*
X01778Y04928*
X0177Y04935*
X0176Y04939*
X0175Y0494*
G37*
G36*
X0185D02*
X0184Y04939D01*
X0183Y04935*
X01822Y04928*
X01815Y0492*
X01811Y0491*
X0181Y049*
X01811Y0489*
X01815Y0488*
X01822Y04872*
X0183Y04865*
X0184Y04861*
X0185Y0486*
X0186Y04861*
X0187Y04865*
X01878Y04872*
X01885Y0488*
X01889Y0489*
X0189Y049*
X01889Y0491*
X01885Y0492*
X01878Y04928*
X0187Y04935*
X0186Y04939*
X0185Y0494*
G37*
G36*
X0145D02*
X0144Y04939D01*
X0143Y04935*
X01422Y04928*
X01415Y0492*
X01411Y0491*
X0141Y049*
X01411Y0489*
X01415Y0488*
X01422Y04872*
X0143Y04865*
X0144Y04861*
X0145Y0486*
X0146Y04861*
X0147Y04865*
X01478Y04872*
X01485Y0488*
X01489Y0489*
X0149Y049*
X01489Y0491*
X01485Y0492*
X01478Y04928*
X0147Y04935*
X0146Y04939*
X0145Y0494*
G37*
G36*
X0155D02*
X0154Y04939D01*
X0153Y04935*
X01522Y04928*
X01515Y0492*
X01511Y0491*
X0151Y049*
X01511Y0489*
X01515Y0488*
X01522Y04872*
X0153Y04865*
X0154Y04861*
X0155Y0486*
X0156Y04861*
X0157Y04865*
X01578Y04872*
X01585Y0488*
X01589Y0489*
X0159Y049*
X01589Y0491*
X01585Y0492*
X01578Y04928*
X0157Y04935*
X0156Y04939*
X0155Y0494*
G37*
G36*
X0215D02*
X0214Y04939D01*
X0213Y04935*
X02122Y04928*
X02115Y0492*
X02111Y0491*
X0211Y049*
X02111Y0489*
X02115Y0488*
X02122Y04872*
X0213Y04865*
X0214Y04861*
X0215Y0486*
X0216Y04861*
X0217Y04865*
X02178Y04872*
X02185Y0488*
X02189Y0489*
X0219Y049*
X02189Y0491*
X02185Y0492*
X02178Y04928*
X0217Y04935*
X0216Y04939*
X0215Y0494*
G37*
G36*
X0235D02*
X0234Y04939D01*
X0233Y04935*
X02322Y04928*
X02315Y0492*
X02311Y0491*
X0231Y049*
X02311Y0489*
X02315Y0488*
X02322Y04872*
X0233Y04865*
X0234Y04861*
X0235Y0486*
X0236Y04861*
X0237Y04865*
X02378Y04872*
X02385Y0488*
X02389Y0489*
X0239Y049*
X02389Y0491*
X02385Y0492*
X02378Y04928*
X0237Y04935*
X0236Y04939*
X0235Y0494*
G37*
G36*
X0195D02*
X0194Y04939D01*
X0193Y04935*
X01922Y04928*
X01915Y0492*
X01911Y0491*
X0191Y049*
X01911Y0489*
X01915Y0488*
X01922Y04872*
X0193Y04865*
X0194Y04861*
X0195Y0486*
X0196Y04861*
X0197Y04865*
X01978Y04872*
X01985Y0488*
X01989Y0489*
X0199Y049*
X01989Y0491*
X01985Y0492*
X01978Y04928*
X0197Y04935*
X0196Y04939*
X0195Y0494*
G37*
G36*
X0205D02*
X0204Y04939D01*
X0203Y04935*
X02022Y04928*
X02015Y0492*
X02011Y0491*
X0201Y049*
X02011Y0489*
X02015Y0488*
X02022Y04872*
X0203Y04865*
X0204Y04861*
X0205Y0486*
X0206Y04861*
X0207Y04865*
X02078Y04872*
X02085Y0488*
X02089Y0489*
X0209Y049*
X02089Y0491*
X02085Y0492*
X02078Y04928*
X0207Y04935*
X0206Y04939*
X0205Y0494*
G37*
G36*
X01145Y04795D02*
X0111D01*
Y0476*
X01145*
Y04795*
G37*
G36*
Y0484D02*
X0111D01*
Y04805*
X01145*
Y0484*
G37*
G36*
X0205D02*
X0204Y04839D01*
X0203Y04835*
X02022Y04828*
X02015Y0482*
X02011Y0481*
X0201Y048*
X02011Y0479*
X02015Y0478*
X02022Y04772*
X0203Y04765*
X0204Y04761*
X0205Y0476*
X0206Y04761*
X0207Y04765*
X02078Y04772*
X02085Y0478*
X02089Y0479*
X0209Y048*
X02089Y0481*
X02085Y0482*
X02078Y04828*
X0207Y04835*
X0206Y04839*
X0205Y0484*
G37*
G36*
X0235D02*
X0234Y04839D01*
X0233Y04835*
X02322Y04828*
X02315Y0482*
X02311Y0481*
X0231Y048*
X02311Y0479*
X02315Y0478*
X02322Y04772*
X0233Y04765*
X0234Y04761*
X0235Y0476*
X0236Y04761*
X0237Y04765*
X02378Y04772*
X02385Y0478*
X02389Y0479*
X0239Y048*
X02389Y0481*
X02385Y0482*
X02378Y04828*
X0237Y04835*
X0236Y04839*
X0235Y0484*
G37*
G36*
X0125Y0494D02*
X0124Y04939D01*
X0123Y04935*
X01222Y04928*
X01215Y0492*
X01211Y0491*
X0121Y049*
X01211Y0489*
X01215Y0488*
X01222Y04872*
X0123Y04865*
X0124Y04861*
X0125Y0486*
X0126Y04861*
X0127Y04865*
X01278Y04872*
X01285Y0488*
X01289Y0489*
X0129Y049*
X01289Y0491*
X01285Y0492*
X01278Y04928*
X0127Y04935*
X0126Y04939*
X0125Y0494*
G37*
G36*
X0135D02*
X0134Y04939D01*
X0133Y04935*
X01322Y04928*
X01315Y0492*
X01311Y0491*
X0131Y049*
X01311Y0489*
X01315Y0488*
X01322Y04872*
X0133Y04865*
X0134Y04861*
X0135Y0486*
X0136Y04861*
X0137Y04865*
X01378Y04872*
X01385Y0488*
X01389Y0489*
X0139Y049*
X01389Y0491*
X01385Y0492*
X01378Y04928*
X0137Y04935*
X0136Y04939*
X0135Y0494*
G37*
G36*
X0225D02*
X0224Y04939D01*
X0223Y04935*
X02222Y04928*
X02215Y0492*
X02211Y0491*
X0221Y049*
X02211Y0489*
X02215Y0488*
X02222Y04872*
X02227Y04868*
Y04862*
X02195Y04829*
X02191Y04824*
Y04823*
X02185Y0482*
X02178Y04828*
X0217Y04835*
X0216Y04839*
X0215Y0484*
X0214Y04839*
X0213Y04835*
X02122Y04828*
X02115Y0482*
X02111Y0481*
X0211Y048*
X02111Y0479*
X02113Y04785*
X01814Y04486*
X01811Y04481*
X0181Y04475*
Y04317*
X01809*
X01804Y04309*
X01803Y04301*
Y04238*
X01804Y04229*
X01809Y04222*
X01816Y04217*
X01825Y04216*
X01834Y04217*
X01841Y04222*
X01846Y04229*
X01847Y04238*
Y04301*
X01846Y04309*
X01841Y04317*
X0184*
Y04469*
X01866Y04495*
X01871Y04493*
Y04453*
Y04452*
Y04448*
Y04447*
Y04411*
X01864Y04404*
X01861Y04399*
X0186Y04394*
Y04317*
X01859*
X01854Y04309*
X01853Y04301*
Y04238*
X01854Y04229*
X01859Y04222*
X01866Y04217*
X01875Y04216*
X01884Y04217*
X01885Y04218*
X01933Y04171*
X01938Y04167*
X01944Y04166*
X02021*
Y04153*
Y04152*
Y04148*
Y04147*
Y04134*
X01963*
X01947Y0415*
X01942Y04153*
X01936Y04154*
X01814*
X01808Y04153*
X01803Y0415*
X01787Y04134*
X01786Y04131*
X01784Y04133*
X01775Y04134*
X01766Y04133*
X01759Y04128*
X01754Y04121*
X01753Y04112*
Y0408*
X01701Y04028*
X01695Y04029*
X01691Y04037*
X01682Y04048*
X01672Y04056*
X0166Y04062*
X01648Y04066*
X01635Y04067*
X01621Y04066*
X01609Y04062*
X01597Y04056*
X01587Y04048*
X01579Y04037*
X01572Y04026*
X01569Y04013*
X01567Y04*
X01569Y03987*
X01572Y03974*
X01579Y03963*
X01587Y03952*
X01597Y03944*
X01609Y03938*
X01621Y03934*
X01635Y03933*
X01648Y03934*
X0166Y03938*
X01672Y03944*
X01682Y03952*
X01691Y03963*
X01697Y03974*
X017Y03986*
X01705Y03989*
X01753Y04036*
X01758*
X01759Y04033*
X01766Y04028*
X01775Y04027*
X01784Y04028*
X01791Y04033*
X01796Y04041*
X01797Y04049*
Y04077*
X01798*
X01803Y04075*
Y04049*
X01804Y04041*
X01809Y04033*
X0181*
Y03829*
X01789*
Y03792*
X0169Y03694*
X01685*
X01682Y03698*
X01672Y03706*
X0166Y03712*
X01648Y03716*
X01635Y03717*
X01621Y03716*
X01609Y03712*
X01597Y03706*
X01587Y03698*
X01579Y03687*
X01572Y03676*
X01569Y03663*
X01567Y0365*
X01568Y03644*
X01563Y03641*
X01544Y03661*
X01539Y03664*
X01533Y03665*
X01485*
Y03717*
X01351*
Y03583*
X01485*
Y03635*
X01526*
X01594Y03567*
X01599Y03564*
X01605Y03563*
X01665*
X0167Y03564*
X01675Y03567*
X01879Y03771*
X01911*
Y03829*
X0189*
Y04033*
X01891*
X01896Y04041*
X01897Y04049*
Y04112*
Y04115*
X019Y0412*
X01903Y04115*
Y04112*
Y04086*
X01925*
X01947*
Y04101*
X0195Y04103*
X01952Y04104*
X01956Y04103*
X02021*
Y04089*
X02035*
Y03988*
X02008Y03961*
X01971*
Y03903*
Y03902*
Y03898*
Y03897*
Y03874*
X02*
X02029*
Y03897*
Y03898*
Y03902*
Y03903*
Y03939*
X02061Y03971*
X02064Y03976*
X02065Y03981*
Y04089*
X02079*
Y04103*
X02171*
Y04089*
X02229*
Y04147*
Y04148*
Y04152*
Y04153*
Y04211*
X02192*
X0214Y04263*
X02135Y04266*
X02129Y04268*
X01947*
Y04294*
X02042Y04389*
X02079*
Y04447*
Y04448*
Y04452*
Y04453*
Y04511*
X02065*
Y04594*
X02235Y04763*
X0224Y04761*
X0225Y0476*
X0226Y04761*
X0227Y04765*
X02278Y04772*
X02285Y0478*
X02289Y0479*
X0229Y048*
X02289Y0481*
X02285Y0482*
X02278Y04828*
X0227Y04835*
X0226Y04839*
X02255*
X02253Y04844*
X02261Y04852*
X02264Y04857*
X02265Y04863*
Y04864*
X0227Y04865*
X02278Y04872*
X02285Y0488*
X02289Y0489*
X0229Y049*
X02289Y0491*
X02285Y0492*
X02278Y04928*
X0227Y04935*
X0226Y04939*
X0225Y0494*
G37*
G36*
X0165D02*
X0164Y04939D01*
X0163Y04935*
X01622Y04928*
X01615Y0492*
X01611Y0491*
X0161Y049*
X01611Y0489*
X01615Y0488*
X01622Y04872*
X01627Y04868*
Y04862*
X01595Y04829*
X01591Y04824*
Y04823*
X01585Y0482*
X01578Y04828*
X0157Y04835*
X0156Y04839*
X0155Y0484*
X0154Y04839*
X0153Y04835*
X01522Y04828*
X01515Y0482*
X01511Y0481*
X0151Y048*
X01511Y0479*
X01515Y0478*
X01522Y04772*
X0153Y04765*
X0154Y04761*
X0155Y0476*
X0156Y04761*
X0157Y04765*
X01578Y04772*
X01585Y0478*
Y04782*
X0159Y04781*
Y04664*
X01591Y04658*
X01595Y04653*
X01642Y04606*
X01639Y04601*
X01632Y04602*
X01618Y04601*
X01605Y04597*
X01595Y04591*
X01389Y04797*
X0139Y048*
X01389Y0481*
X01385Y0482*
X01378Y04828*
X0137Y04835*
X0136Y04839*
X0135Y0484*
X0134Y04839*
X0133Y04835*
X01322Y04828*
X01315Y0482*
X01311Y0481*
X0131Y048*
X01311Y0479*
X01315Y0478*
X01322Y04772*
X0133Y04765*
X0134Y04761*
X0135Y0476*
X0136Y04761*
X0137Y04765*
X01374Y04769*
X01573Y0457*
X01568Y04559*
X01564Y04546*
X01563Y04533*
X01564Y04519*
X01565Y04517*
X0156Y04514*
X01287Y04787*
X01289Y0479*
X0129Y048*
X01289Y0481*
X01285Y0482*
X01278Y04828*
X0127Y04835*
X0126Y04839*
X0125Y0484*
X0124Y04839*
X0123Y04835*
X01222Y04828*
X01215Y0482*
Y04818*
X0121Y04819*
Y04857*
X01209Y04863*
X01205Y04868*
X01187Y04886*
X01189Y0489*
X0119Y049*
X01189Y0491*
X01185Y0492*
X01178Y04928*
X0117Y04935*
X0116Y04939*
X0115Y0494*
X0114Y04939*
X0113Y04935*
X01122Y04928*
X01115Y0492*
X01111Y0491*
X0111Y049*
X01111Y0489*
X01115Y0488*
X01122Y04872*
X0113Y04865*
X0114Y04861*
X0115Y0486*
X0116Y04861*
X01166Y04864*
X01179Y04851*
Y0484*
X01155*
Y048*
Y0476*
X01179*
Y04588*
X0118Y04582*
X01184Y04577*
X01346Y04415*
Y04298*
X01484*
Y04436*
X01368*
X0121Y04594*
Y04781*
X01215Y04782*
Y0478*
X01222Y04772*
X0123Y04765*
X0124Y04761*
X0125Y0476*
X0126Y04761*
X01267Y04764*
X01425Y04606*
X01423Y04601*
X01415Y04602*
X01402Y04601*
X01389Y04597*
X01377Y0459*
X01366Y04582*
X01358Y04571*
X01351Y04559*
X01347Y04546*
X01346Y04533*
X01347Y04519*
X01351Y04506*
X01358Y04494*
X01366Y04484*
X01377Y04475*
X01389Y04469*
X01402Y04465*
X01415Y04463*
X01429Y04465*
X01442Y04469*
X01454Y04475*
X01464Y04484*
X01473Y04494*
X01479Y04506*
X01483Y04519*
X01485Y04533*
X01484Y0454*
X01489Y04542*
X01599Y04432*
X01598Y04427*
X01593Y04425*
X01583Y04416*
X01574Y04406*
X01568Y04394*
X01564Y04381*
X01563Y04367*
X01564Y04354*
X01568Y04341*
X01574Y04329*
X01583Y04318*
X01593Y0431*
X01605Y04303*
X01618Y04299*
X01632Y04298*
X01645Y04299*
X01658Y04303*
X0167Y0431*
X01681Y04318*
X01686Y04324*
X01691Y04322*
Y043*
X01458Y04067*
X01351*
Y03933*
X01485*
Y04051*
X01717Y04282*
X0172Y04287*
X01721Y04293*
Y04563*
X0172Y04569*
X01717Y04574*
X01621Y0467*
Y04766*
X01626Y04769*
X0163Y04765*
X0164Y04761*
X0165Y0476*
X0166Y04761*
X0167Y04765*
X01678Y04772*
X01685Y0478*
X01689Y0479*
X0169Y048*
X01689Y0481*
X01685Y0482*
X01678Y04828*
X0167Y04835*
X0166Y04839*
X01655*
X01653Y04844*
X01661Y04852*
X01664Y04857*
X01665Y04863*
Y04864*
X0167Y04865*
X01678Y04872*
X01685Y0488*
X01689Y0489*
X0169Y049*
X01689Y0491*
X01685Y0492*
X01678Y04928*
X0167Y04935*
X0166Y04939*
X0165Y0494*
G37*
%LNovenpi-3*%
%LPD*%
G54D10*
X01925Y04269D03*
X01875D03*
X01825D03*
X01775D03*
X01925Y04081D03*
X01875D03*
X01825D03*
X01775D03*
G54D11*
X0205Y04181D03*
Y04119D03*
X022Y04181D03*
Y04119D03*
X02Y03931D03*
Y03869D03*
X019Y04419D03*
Y04481D03*
X0205Y04419D03*
Y04481D03*
G54D12*
X01819Y038D03*
X01881D03*
G54D13*
X01775Y04081D02*
X01798Y04104D01*
Y04123*
X01814Y04139*
X01936*
X01956Y04119*
X0205*
X01694Y04D02*
X01775Y04081D01*
X01635Y04D02*
X01694D01*
X01875Y04269D02*
Y04394D01*
Y0425D02*
Y04269D01*
Y0425D02*
X01944Y04181D01*
X0205*
X01875Y03806D02*
X01881Y038D01*
X01875Y03806D02*
Y04081D01*
X01819Y038D02*
X01825Y03806D01*
Y04081*
X0165Y04863D02*
Y049D01*
X01605Y04818D02*
X0165Y04863D01*
X01605Y04664D02*
Y04818D01*
Y04664D02*
X01706Y04563D01*
Y04293D02*
Y04563D01*
X01418Y04005D02*
X01706Y04293D01*
X01418Y04D02*
Y04005D01*
X01875Y04394D02*
X019Y04419D01*
X01925Y04252D02*
Y04294D01*
X0205Y04419*
Y04481D02*
Y046D01*
X0225Y048*
X019Y04481D02*
X02205Y04787D01*
Y04818*
X0225Y04863*
Y049*
X01825Y04252D02*
Y04475D01*
X0215Y048*
X01925Y04252D02*
X02129D01*
X022Y04181*
X0205Y04119D02*
X022D01*
X0205Y03981D02*
Y04119D01*
X02Y03931D02*
X0205Y03981D01*
X01635Y0365D02*
X01669D01*
X01819Y038*
X01418Y0365D02*
X01533D01*
X01605Y03578*
X01665*
X01881Y03795*
Y038*
X0135Y048D02*
X01365D01*
X01632Y04533*
X0125Y048D02*
X01253D01*
X01632Y04421*
Y04367D02*
Y04421D01*
X01195Y04588D02*
X01415Y04367D01*
X0115Y049D02*
X01152D01*
X01195Y04857*
Y04588D02*
Y04857D01*
G54D14*
X023Y044D03*
Y045D03*
X0115Y049D03*
X0125Y048D03*
Y049D03*
X0135Y048D03*
Y049D03*
X0145Y048D03*
Y049D03*
X0155Y048D03*
Y049D03*
X0165Y048D03*
Y049D03*
X0175Y048D03*
Y049D03*
X0185Y048D03*
Y049D03*
X0195Y048D03*
Y049D03*
X0205Y048D03*
Y049D03*
X0215Y048D03*
Y049D03*
X0225Y048D03*
Y049D03*
X0235Y048D03*
Y049D03*
G54D15*
X023Y046D03*
G54D16*
X01128Y0445D03*
G54D17*
X01415Y04367D03*
G54D18*
X01632Y04367D03*
X01415Y04533D03*
X01632D03*
G54D19*
X01131Y04D03*
Y0365D03*
G54D20*
X01418Y04D03*
Y0365D03*
G54D21*
X01635Y04D03*
Y0365D03*
G54D22*
X0115Y048D03*
M02*