G04 Layer_Physical_Order=2*
G04 Layer_Color=16711680*
%FSLAX23Y23*%
%MOIN*%
G70*
G01*
G75*
%ADD13C,0.010*%
%ADD14C,0.059*%
%ADD15R,0.059X0.059*%
%ADD16C,0.150*%
%ADD17R,0.118X0.118*%
%ADD18C,0.118*%
%ADD19C,0.141*%
%ADD20R,0.114X0.114*%
%ADD21C,0.114*%
%ADD22R,0.059X0.059*%
G36*
X2510Y4281D02*
X1744Y3515D01*
X1015D01*
Y4985D01*
X2510D01*
Y4281D01*
D02*
G37*
%LPC*%
G36*
X2295Y4395D02*
X2261D01*
X2261Y4390D01*
X2265Y4380D01*
X2272Y4372D01*
X2280Y4365D01*
X2290Y4361D01*
X2295Y4361D01*
Y4395D01*
D02*
G37*
G36*
X2339D02*
X2305D01*
Y4361D01*
X2310Y4361D01*
X2320Y4365D01*
X2328Y4372D01*
X2335Y4380D01*
X2339Y4390D01*
X2339Y4395D01*
D02*
G37*
G36*
X1632Y4437D02*
X1618Y4435D01*
X1605Y4431D01*
X1593Y4425D01*
X1583Y4416D01*
X1574Y4406D01*
X1568Y4394D01*
X1564Y4381D01*
X1563Y4367D01*
X1564Y4354D01*
X1568Y4341D01*
X1574Y4329D01*
X1583Y4318D01*
X1593Y4310D01*
X1605Y4303D01*
X1618Y4299D01*
X1632Y4298D01*
X1645Y4299D01*
X1658Y4303D01*
X1670Y4310D01*
X1681Y4318D01*
X1690Y4329D01*
X1696Y4341D01*
X1700Y4354D01*
X1701Y4367D01*
X1700Y4381D01*
X1696Y4394D01*
X1690Y4406D01*
X1681Y4416D01*
X1670Y4425D01*
X1658Y4431D01*
X1645Y4435D01*
X1632Y4437D01*
D02*
G37*
G36*
X1484Y4436D02*
X1346D01*
Y4298D01*
X1484D01*
Y4436D01*
D02*
G37*
G36*
X1128Y4535D02*
X1111Y4534D01*
X1095Y4529D01*
X1081Y4521D01*
X1068Y4510D01*
X1057Y4497D01*
X1049Y4483D01*
X1044Y4467D01*
X1043Y4450D01*
X1044Y4433D01*
X1049Y4417D01*
X1057Y4403D01*
X1068Y4390D01*
X1081Y4379D01*
X1095Y4371D01*
X1111Y4366D01*
X1128Y4365D01*
X1145Y4366D01*
X1161Y4371D01*
X1175Y4379D01*
X1188Y4390D01*
X1199Y4403D01*
X1207Y4417D01*
X1212Y4433D01*
X1213Y4450D01*
X1212Y4467D01*
X1207Y4483D01*
X1199Y4497D01*
X1188Y4510D01*
X1175Y4521D01*
X1161Y4529D01*
X1145Y4534D01*
X1128Y4535D01*
D02*
G37*
G36*
X1632Y4602D02*
X1618Y4601D01*
X1605Y4597D01*
X1593Y4590D01*
X1583Y4582D01*
X1574Y4571D01*
X1568Y4559D01*
X1564Y4546D01*
X1563Y4533D01*
X1564Y4519D01*
X1568Y4506D01*
X1574Y4494D01*
X1583Y4484D01*
X1593Y4475D01*
X1605Y4469D01*
X1618Y4465D01*
X1632Y4463D01*
X1645Y4465D01*
X1658Y4469D01*
X1670Y4475D01*
X1681Y4484D01*
X1690Y4494D01*
X1696Y4506D01*
X1700Y4519D01*
X1701Y4533D01*
X1700Y4546D01*
X1696Y4559D01*
X1690Y4571D01*
X1681Y4582D01*
X1670Y4590D01*
X1658Y4597D01*
X1645Y4601D01*
X1632Y4602D01*
D02*
G37*
G36*
X1410Y4528D02*
X1346D01*
X1347Y4519D01*
X1351Y4506D01*
X1358Y4494D01*
X1366Y4484D01*
X1377Y4475D01*
X1389Y4469D01*
X1402Y4465D01*
X1410Y4464D01*
Y4528D01*
D02*
G37*
G36*
X2295Y4439D02*
X2290Y4439D01*
X2280Y4435D01*
X2272Y4428D01*
X2265Y4420D01*
X2261Y4410D01*
X2261Y4405D01*
X2295D01*
Y4439D01*
D02*
G37*
G36*
X2305D02*
Y4405D01*
X2339D01*
X2339Y4410D01*
X2335Y4420D01*
X2328Y4428D01*
X2320Y4435D01*
X2310Y4439D01*
X2305Y4439D01*
D02*
G37*
G36*
X1485Y3717D02*
X1351D01*
Y3583D01*
X1485D01*
Y3717D01*
D02*
G37*
G36*
X1131Y4081D02*
X1115Y4079D01*
X1100Y4075D01*
X1086Y4067D01*
X1074Y4057D01*
X1064Y4045D01*
X1056Y4031D01*
X1051Y4016D01*
X1050Y4000D01*
X1051Y3984D01*
X1056Y3969D01*
X1064Y3955D01*
X1074Y3943D01*
X1086Y3933D01*
X1100Y3925D01*
X1115Y3921D01*
X1131Y3919D01*
X1146Y3921D01*
X1162Y3925D01*
X1176Y3933D01*
X1188Y3943D01*
X1198Y3955D01*
X1205Y3969D01*
X1210Y3984D01*
X1212Y4000D01*
X1210Y4016D01*
X1205Y4031D01*
X1198Y4045D01*
X1188Y4057D01*
X1176Y4067D01*
X1162Y4075D01*
X1146Y4079D01*
X1131Y4081D01*
D02*
G37*
G36*
Y3731D02*
X1115Y3729D01*
X1100Y3725D01*
X1086Y3717D01*
X1074Y3707D01*
X1064Y3695D01*
X1056Y3681D01*
X1051Y3666D01*
X1050Y3650D01*
X1051Y3634D01*
X1056Y3619D01*
X1064Y3605D01*
X1074Y3593D01*
X1086Y3583D01*
X1100Y3575D01*
X1115Y3571D01*
X1131Y3569D01*
X1146Y3571D01*
X1162Y3575D01*
X1176Y3583D01*
X1188Y3593D01*
X1198Y3605D01*
X1205Y3619D01*
X1210Y3634D01*
X1212Y3650D01*
X1210Y3666D01*
X1205Y3681D01*
X1198Y3695D01*
X1188Y3707D01*
X1176Y3717D01*
X1162Y3725D01*
X1146Y3729D01*
X1131Y3731D01*
D02*
G37*
G36*
X1635Y3717D02*
X1621Y3716D01*
X1609Y3712D01*
X1597Y3706D01*
X1587Y3698D01*
X1579Y3687D01*
X1572Y3676D01*
X1569Y3663D01*
X1567Y3650D01*
X1569Y3637D01*
X1572Y3624D01*
X1579Y3613D01*
X1587Y3602D01*
X1597Y3594D01*
X1609Y3588D01*
X1621Y3584D01*
X1635Y3583D01*
X1648Y3584D01*
X1660Y3588D01*
X1672Y3594D01*
X1682Y3602D01*
X1691Y3613D01*
X1697Y3624D01*
X1701Y3637D01*
X1702Y3650D01*
X1701Y3663D01*
X1697Y3676D01*
X1691Y3687D01*
X1682Y3698D01*
X1672Y3706D01*
X1660Y3712D01*
X1648Y3716D01*
X1635Y3717D01*
D02*
G37*
G36*
X1485Y4067D02*
X1351D01*
Y3933D01*
X1485D01*
Y4067D01*
D02*
G37*
G36*
X1630Y4067D02*
X1621Y4066D01*
X1609Y4062D01*
X1597Y4056D01*
X1587Y4048D01*
X1579Y4037D01*
X1572Y4026D01*
X1569Y4013D01*
X1568Y4005D01*
X1630D01*
Y4067D01*
D02*
G37*
G36*
X1640D02*
Y4005D01*
X1702D01*
X1701Y4013D01*
X1697Y4026D01*
X1691Y4037D01*
X1682Y4048D01*
X1672Y4056D01*
X1660Y4062D01*
X1648Y4066D01*
X1640Y4067D01*
D02*
G37*
G36*
X1630Y3995D02*
X1568D01*
X1569Y3987D01*
X1572Y3974D01*
X1579Y3963D01*
X1587Y3952D01*
X1597Y3944D01*
X1609Y3938D01*
X1621Y3934D01*
X1630Y3933D01*
Y3995D01*
D02*
G37*
G36*
X1702D02*
X1640D01*
Y3933D01*
X1648Y3934D01*
X1660Y3938D01*
X1672Y3944D01*
X1682Y3952D01*
X1691Y3963D01*
X1697Y3974D01*
X1701Y3987D01*
X1702Y3995D01*
D02*
G37*
G36*
X1484Y4528D02*
X1420D01*
Y4464D01*
X1429Y4465D01*
X1442Y4469D01*
X1454Y4475D01*
X1464Y4484D01*
X1473Y4494D01*
X1479Y4506D01*
X1483Y4519D01*
X1484Y4528D01*
D02*
G37*
G36*
X2250Y4940D02*
X2240Y4939D01*
X2230Y4935D01*
X2222Y4928D01*
X2215Y4920D01*
X2211Y4910D01*
X2210Y4900D01*
X2211Y4890D01*
X2215Y4880D01*
X2222Y4872D01*
X2230Y4865D01*
X2240Y4861D01*
X2250Y4860D01*
X2260Y4861D01*
X2270Y4865D01*
X2278Y4872D01*
X2285Y4880D01*
X2289Y4890D01*
X2290Y4900D01*
X2289Y4910D01*
X2285Y4920D01*
X2278Y4928D01*
X2270Y4935D01*
X2260Y4939D01*
X2250Y4940D01*
D02*
G37*
G36*
X2350D02*
X2340Y4939D01*
X2330Y4935D01*
X2322Y4928D01*
X2315Y4920D01*
X2311Y4910D01*
X2310Y4900D01*
X2311Y4890D01*
X2315Y4880D01*
X2322Y4872D01*
X2330Y4865D01*
X2340Y4861D01*
X2350Y4860D01*
X2360Y4861D01*
X2370Y4865D01*
X2378Y4872D01*
X2385Y4880D01*
X2389Y4890D01*
X2390Y4900D01*
X2389Y4910D01*
X2385Y4920D01*
X2378Y4928D01*
X2370Y4935D01*
X2360Y4939D01*
X2350Y4940D01*
D02*
G37*
G36*
X1250D02*
X1240Y4939D01*
X1230Y4935D01*
X1222Y4928D01*
X1215Y4920D01*
X1211Y4910D01*
X1210Y4900D01*
X1211Y4890D01*
X1215Y4880D01*
X1222Y4872D01*
X1230Y4865D01*
X1240Y4861D01*
X1250Y4860D01*
X1260Y4861D01*
X1270Y4865D01*
X1278Y4872D01*
X1285Y4880D01*
X1289Y4890D01*
X1290Y4900D01*
X1289Y4910D01*
X1285Y4920D01*
X1278Y4928D01*
X1270Y4935D01*
X1260Y4939D01*
X1250Y4940D01*
D02*
G37*
G36*
X2150D02*
X2140Y4939D01*
X2130Y4935D01*
X2122Y4928D01*
X2115Y4920D01*
X2111Y4910D01*
X2110Y4900D01*
X2111Y4890D01*
X2115Y4880D01*
X2122Y4872D01*
X2130Y4865D01*
X2140Y4861D01*
X2150Y4860D01*
X2160Y4861D01*
X2170Y4865D01*
X2178Y4872D01*
X2185Y4880D01*
X2189Y4890D01*
X2190Y4900D01*
X2189Y4910D01*
X2185Y4920D01*
X2178Y4928D01*
X2170Y4935D01*
X2160Y4939D01*
X2150Y4940D01*
D02*
G37*
G36*
X1345Y4895D02*
X1311D01*
X1311Y4890D01*
X1315Y4880D01*
X1322Y4872D01*
X1330Y4865D01*
X1340Y4861D01*
X1345Y4861D01*
Y4895D01*
D02*
G37*
G36*
X1355Y4939D02*
Y4905D01*
X1389D01*
X1389Y4910D01*
X1385Y4920D01*
X1378Y4928D01*
X1370Y4935D01*
X1360Y4939D01*
X1355Y4939D01*
D02*
G37*
G36*
X1963Y4965D02*
X1500D01*
X1494Y4964D01*
X1489Y4961D01*
X1465Y4937D01*
X1460Y4939D01*
X1450Y4940D01*
X1440Y4939D01*
X1430Y4935D01*
X1422Y4928D01*
X1415Y4920D01*
X1411Y4910D01*
X1410Y4900D01*
X1411Y4890D01*
X1415Y4880D01*
X1422Y4872D01*
X1430Y4865D01*
X1440Y4861D01*
X1450Y4860D01*
X1460Y4861D01*
X1470Y4865D01*
X1478Y4872D01*
X1485Y4880D01*
X1489Y4890D01*
X1490Y4900D01*
X1489Y4910D01*
X1487Y4915D01*
X1506Y4935D01*
X1522D01*
X1524Y4930D01*
X1522Y4928D01*
X1515Y4920D01*
X1511Y4910D01*
X1510Y4900D01*
X1511Y4890D01*
X1515Y4880D01*
X1522Y4872D01*
X1530Y4865D01*
X1540Y4861D01*
X1550Y4860D01*
X1560Y4861D01*
X1570Y4865D01*
X1578Y4872D01*
X1582Y4877D01*
X1588Y4877D01*
X1621Y4845D01*
X1626Y4841D01*
X1627Y4841D01*
X1630Y4835D01*
X1630Y4835D01*
X1622Y4828D01*
X1615Y4820D01*
X1611Y4810D01*
X1610Y4800D01*
X1611Y4790D01*
X1615Y4780D01*
X1622Y4772D01*
X1630Y4765D01*
X1640Y4761D01*
X1650Y4760D01*
X1660Y4761D01*
X1670Y4765D01*
X1678Y4772D01*
X1685Y4780D01*
X1689Y4790D01*
X1690Y4800D01*
X1689Y4810D01*
X1685Y4820D01*
X1678Y4828D01*
X1670Y4835D01*
X1668Y4835D01*
X1669Y4840D01*
X1731D01*
X1732Y4835D01*
X1730Y4835D01*
X1722Y4828D01*
X1715Y4820D01*
X1711Y4810D01*
X1710Y4800D01*
X1711Y4790D01*
X1715Y4780D01*
X1722Y4772D01*
X1730Y4765D01*
X1740Y4761D01*
X1750Y4760D01*
X1760Y4761D01*
X1770Y4765D01*
X1778Y4772D01*
X1785Y4780D01*
X1789Y4790D01*
X1790Y4800D01*
X1789Y4810D01*
X1785Y4820D01*
X1778Y4828D01*
X1770Y4835D01*
X1768Y4835D01*
X1769Y4840D01*
X1831D01*
X1832Y4835D01*
X1830Y4835D01*
X1822Y4828D01*
X1815Y4820D01*
X1811Y4810D01*
X1810Y4800D01*
X1811Y4790D01*
X1815Y4780D01*
X1822Y4772D01*
X1830Y4765D01*
X1840Y4761D01*
X1850Y4760D01*
X1860Y4761D01*
X1870Y4765D01*
X1878Y4772D01*
X1885Y4780D01*
X1889Y4790D01*
X1890Y4800D01*
X1889Y4810D01*
X1885Y4820D01*
X1878Y4828D01*
X1870Y4835D01*
X1868Y4835D01*
X1869Y4840D01*
X1931D01*
X1932Y4835D01*
X1930Y4835D01*
X1922Y4828D01*
X1915Y4820D01*
X1911Y4810D01*
X1910Y4800D01*
X1911Y4790D01*
X1915Y4780D01*
X1922Y4772D01*
X1930Y4765D01*
X1940Y4761D01*
X1950Y4760D01*
X1960Y4761D01*
X1970Y4765D01*
X1978Y4772D01*
X1985Y4780D01*
X1985Y4780D01*
X1991Y4777D01*
X1991Y4776D01*
X1995Y4771D01*
X2021Y4745D01*
X2026Y4741D01*
X2032Y4740D01*
X2038D01*
X2263Y4515D01*
X2261Y4510D01*
X2260Y4500D01*
X2261Y4490D01*
X2265Y4480D01*
X2272Y4472D01*
X2280Y4465D01*
X2290Y4461D01*
X2300Y4460D01*
X2310Y4461D01*
X2320Y4465D01*
X2328Y4472D01*
X2335Y4480D01*
X2339Y4490D01*
X2340Y4500D01*
X2339Y4510D01*
X2335Y4520D01*
X2328Y4528D01*
X2320Y4535D01*
X2310Y4539D01*
X2300Y4540D01*
X2290Y4539D01*
X2285Y4537D01*
X2266Y4556D01*
X2268Y4560D01*
X2340D01*
Y4640D01*
X2282D01*
X2164Y4758D01*
X2165Y4764D01*
X2170Y4765D01*
X2178Y4772D01*
X2185Y4780D01*
X2189Y4790D01*
X2190Y4800D01*
X2189Y4810D01*
X2185Y4820D01*
X2178Y4828D01*
X2170Y4835D01*
X2160Y4839D01*
X2150Y4840D01*
X2140Y4839D01*
X2130Y4835D01*
X2122Y4828D01*
X2118Y4823D01*
X2112Y4823D01*
X2079Y4855D01*
X2074Y4859D01*
X2073Y4859D01*
X2070Y4865D01*
X2070Y4865D01*
X2078Y4872D01*
X2085Y4880D01*
X2089Y4890D01*
X2090Y4900D01*
X2089Y4910D01*
X2085Y4920D01*
X2078Y4928D01*
X2070Y4935D01*
X2060Y4939D01*
X2050Y4940D01*
X2040Y4939D01*
X2030Y4935D01*
X2022Y4928D01*
X2018Y4923D01*
X2012Y4923D01*
X1974Y4961D01*
X1969Y4964D01*
X1963Y4965D01*
D02*
G37*
G36*
X1389Y4895D02*
X1355D01*
Y4861D01*
X1360Y4861D01*
X1370Y4865D01*
X1378Y4872D01*
X1385Y4880D01*
X1389Y4890D01*
X1389Y4895D01*
D02*
G37*
G36*
X1345Y4939D02*
X1340Y4939D01*
X1330Y4935D01*
X1322Y4928D01*
X1315Y4920D01*
X1311Y4910D01*
X1311Y4905D01*
X1345D01*
Y4939D01*
D02*
G37*
G36*
X1150Y4940D02*
X1140Y4939D01*
X1130Y4935D01*
X1122Y4928D01*
X1115Y4920D01*
X1111Y4910D01*
X1110Y4900D01*
X1111Y4890D01*
X1115Y4880D01*
X1122Y4872D01*
X1130Y4865D01*
X1140Y4861D01*
X1150Y4860D01*
X1160Y4861D01*
X1170Y4865D01*
X1178Y4872D01*
X1185Y4880D01*
X1189Y4890D01*
X1190Y4900D01*
X1189Y4910D01*
X1185Y4920D01*
X1178Y4928D01*
X1170Y4935D01*
X1160Y4939D01*
X1150Y4940D01*
D02*
G37*
G36*
X1250Y4840D02*
X1240Y4839D01*
X1230Y4835D01*
X1222Y4828D01*
X1215Y4820D01*
X1211Y4810D01*
X1210Y4800D01*
X1211Y4790D01*
X1215Y4780D01*
X1222Y4772D01*
X1230Y4765D01*
X1240Y4761D01*
X1250Y4760D01*
X1260Y4761D01*
X1270Y4765D01*
X1278Y4772D01*
X1285Y4780D01*
X1289Y4790D01*
X1290Y4800D01*
X1289Y4810D01*
X1285Y4820D01*
X1278Y4828D01*
X1270Y4835D01*
X1260Y4839D01*
X1250Y4840D01*
D02*
G37*
G36*
X1350D02*
X1340Y4839D01*
X1330Y4835D01*
X1322Y4828D01*
X1315Y4820D01*
X1311Y4810D01*
X1310Y4800D01*
X1311Y4790D01*
X1315Y4780D01*
X1322Y4772D01*
X1330Y4765D01*
X1340Y4761D01*
X1350Y4760D01*
X1360Y4761D01*
X1370Y4765D01*
X1378Y4772D01*
X1385Y4780D01*
X1389Y4790D01*
X1390Y4800D01*
X1389Y4810D01*
X1385Y4820D01*
X1378Y4828D01*
X1370Y4835D01*
X1360Y4839D01*
X1350Y4840D01*
D02*
G37*
G36*
X1410Y4602D02*
X1402Y4601D01*
X1389Y4597D01*
X1377Y4590D01*
X1366Y4582D01*
X1358Y4571D01*
X1351Y4559D01*
X1347Y4546D01*
X1346Y4538D01*
X1410D01*
Y4602D01*
D02*
G37*
G36*
X1420D02*
Y4538D01*
X1484D01*
X1483Y4546D01*
X1479Y4559D01*
X1473Y4571D01*
X1464Y4582D01*
X1454Y4590D01*
X1442Y4597D01*
X1429Y4601D01*
X1420Y4602D01*
D02*
G37*
G36*
X1450Y4840D02*
X1440Y4839D01*
X1430Y4835D01*
X1422Y4828D01*
X1415Y4820D01*
X1411Y4810D01*
X1410Y4800D01*
X1411Y4790D01*
X1415Y4780D01*
X1422Y4772D01*
X1430Y4765D01*
X1440Y4761D01*
X1450Y4760D01*
X1460Y4761D01*
X1470Y4765D01*
X1478Y4772D01*
X1485Y4780D01*
X1489Y4790D01*
X1490Y4800D01*
X1489Y4810D01*
X1485Y4820D01*
X1478Y4828D01*
X1470Y4835D01*
X1460Y4839D01*
X1450Y4840D01*
D02*
G37*
G36*
X2350D02*
X2340Y4839D01*
X2330Y4835D01*
X2322Y4828D01*
X2315Y4820D01*
X2311Y4810D01*
X2310Y4800D01*
X2311Y4790D01*
X2315Y4780D01*
X2322Y4772D01*
X2330Y4765D01*
X2340Y4761D01*
X2350Y4760D01*
X2360Y4761D01*
X2370Y4765D01*
X2378Y4772D01*
X2385Y4780D01*
X2389Y4790D01*
X2390Y4800D01*
X2389Y4810D01*
X2385Y4820D01*
X2378Y4828D01*
X2370Y4835D01*
X2360Y4839D01*
X2350Y4840D01*
D02*
G37*
G36*
X1190Y4840D02*
X1110D01*
Y4760D01*
X1190D01*
Y4840D01*
D02*
G37*
G36*
X1550Y4840D02*
X1540Y4839D01*
X1530Y4835D01*
X1522Y4828D01*
X1515Y4820D01*
X1511Y4810D01*
X1510Y4800D01*
X1511Y4790D01*
X1515Y4780D01*
X1522Y4772D01*
X1530Y4765D01*
X1540Y4761D01*
X1550Y4760D01*
X1560Y4761D01*
X1570Y4765D01*
X1578Y4772D01*
X1585Y4780D01*
X1589Y4790D01*
X1590Y4800D01*
X1589Y4810D01*
X1585Y4820D01*
X1578Y4828D01*
X1570Y4835D01*
X1560Y4839D01*
X1550Y4840D01*
D02*
G37*
G36*
X2250D02*
X2240Y4839D01*
X2230Y4835D01*
X2222Y4828D01*
X2215Y4820D01*
X2211Y4810D01*
X2210Y4800D01*
X2211Y4790D01*
X2215Y4780D01*
X2222Y4772D01*
X2230Y4765D01*
X2240Y4761D01*
X2250Y4760D01*
X2260Y4761D01*
X2270Y4765D01*
X2278Y4772D01*
X2285Y4780D01*
X2289Y4790D01*
X2290Y4800D01*
X2289Y4810D01*
X2285Y4820D01*
X2278Y4828D01*
X2270Y4835D01*
X2260Y4839D01*
X2250Y4840D01*
D02*
G37*
%LPD*%
D13*
X1450Y4900D02*
X1500Y4950D01*
X1963D01*
X2005Y4907D01*
Y4882D02*
Y4907D01*
Y4882D02*
X2043Y4845D01*
X2068D01*
X2105Y4807D01*
Y4782D02*
Y4807D01*
Y4782D02*
X2132Y4755D01*
X2145D01*
X2300Y4600D01*
X1550Y4900D02*
X1587D01*
X1632Y4855D01*
X1957D01*
X2005Y4807D01*
Y4782D02*
Y4807D01*
Y4782D02*
X2032Y4755D01*
X2045D01*
X2300Y4500D01*
D14*
Y4400D02*
D03*
Y4500D02*
D03*
X1150Y4900D02*
D03*
X1250Y4800D02*
D03*
Y4900D02*
D03*
X1350Y4800D02*
D03*
Y4900D02*
D03*
X1450Y4800D02*
D03*
Y4900D02*
D03*
X1550Y4800D02*
D03*
Y4900D02*
D03*
X1650Y4800D02*
D03*
Y4900D02*
D03*
X1750Y4800D02*
D03*
Y4900D02*
D03*
X1850Y4800D02*
D03*
Y4900D02*
D03*
X1950Y4800D02*
D03*
Y4900D02*
D03*
X2050Y4800D02*
D03*
Y4900D02*
D03*
X2150Y4800D02*
D03*
Y4900D02*
D03*
X2250Y4800D02*
D03*
Y4900D02*
D03*
X2350Y4800D02*
D03*
Y4900D02*
D03*
D15*
X2300Y4600D02*
D03*
D16*
X1128Y4450D02*
D03*
D17*
X1415Y4367D02*
D03*
D18*
X1632D02*
D03*
X1415Y4533D02*
D03*
X1632D02*
D03*
D19*
X1131Y4000D02*
D03*
Y3650D02*
D03*
D20*
X1418Y4000D02*
D03*
Y3650D02*
D03*
D21*
X1635Y4000D02*
D03*
Y3650D02*
D03*
D22*
X1150Y4800D02*
D03*
M02*
