G04 Layer_Color=8388736*
%FSLAX23Y23*%
%MOIN*%
G70*
G01*
G75*
%ADD28O,0.032X0.095*%
%ADD29R,0.043X0.044*%
%ADD30R,0.044X0.043*%
%ADD31C,0.067*%
%ADD32R,0.067X0.067*%
%ADD33C,0.158*%
%ADD34R,0.126X0.126*%
%ADD35C,0.126*%
%ADD36C,0.149*%
%ADD37R,0.122X0.122*%
%ADD38C,0.122*%
%ADD39R,0.067X0.067*%
D28*
X1925Y4269D02*
D03*
X1875D02*
D03*
X1825D02*
D03*
X1775D02*
D03*
X1925Y4081D02*
D03*
X1875D02*
D03*
X1825D02*
D03*
X1775D02*
D03*
D29*
X2050Y4181D02*
D03*
Y4119D02*
D03*
X2200Y4181D02*
D03*
Y4119D02*
D03*
X2000Y3931D02*
D03*
Y3869D02*
D03*
X1900Y4419D02*
D03*
Y4481D02*
D03*
X2050Y4419D02*
D03*
Y4481D02*
D03*
D30*
X1819Y3800D02*
D03*
X1881D02*
D03*
D31*
X2300Y4400D02*
D03*
Y4500D02*
D03*
X1150Y4900D02*
D03*
X1250Y4800D02*
D03*
Y4900D02*
D03*
X1350Y4800D02*
D03*
Y4900D02*
D03*
X1450Y4800D02*
D03*
Y4900D02*
D03*
X1550Y4800D02*
D03*
Y4900D02*
D03*
X1650Y4800D02*
D03*
Y4900D02*
D03*
X1750Y4800D02*
D03*
Y4900D02*
D03*
X1850Y4800D02*
D03*
Y4900D02*
D03*
X1950Y4800D02*
D03*
Y4900D02*
D03*
X2050Y4800D02*
D03*
Y4900D02*
D03*
X2150Y4800D02*
D03*
Y4900D02*
D03*
X2250Y4800D02*
D03*
Y4900D02*
D03*
X2350Y4800D02*
D03*
Y4900D02*
D03*
D32*
X2300Y4600D02*
D03*
D33*
X1128Y4450D02*
D03*
D34*
X1415Y4367D02*
D03*
D35*
X1632D02*
D03*
X1415Y4533D02*
D03*
X1632D02*
D03*
D36*
X1131Y4000D02*
D03*
Y3650D02*
D03*
D37*
X1418Y4000D02*
D03*
Y3650D02*
D03*
D38*
X1635Y4000D02*
D03*
Y3650D02*
D03*
D39*
X1150Y4800D02*
D03*
M02*
