G04 Layer_Physical_Order=1*
G04 Layer_Color=255*
%FSLAX23Y23*%
%MOIN*%
G70*
G01*
G75*
%ADD10O,0.024X0.087*%
%ADD11R,0.038X0.039*%
%ADD12R,0.039X0.038*%
%ADD13C,0.010*%
%ADD14C,0.059*%
%ADD15R,0.059X0.059*%
%ADD16C,0.150*%
%ADD17R,0.118X0.118*%
%ADD18C,0.118*%
%ADD19C,0.141*%
%ADD20R,0.114X0.114*%
%ADD21C,0.114*%
%ADD22R,0.059X0.059*%
G36*
X2510Y4281D02*
X1744Y3515D01*
X1015D01*
Y4985D01*
X2510D01*
Y4281D01*
D02*
G37*
%LPC*%
G36*
X2340Y4640D02*
X2260D01*
Y4560D01*
X2340D01*
Y4640D01*
D02*
G37*
G36*
X2300Y4540D02*
X2290Y4539D01*
X2280Y4535D01*
X2272Y4528D01*
X2265Y4520D01*
X2261Y4510D01*
X2260Y4500D01*
X2261Y4490D01*
X2265Y4480D01*
X2272Y4472D01*
X2280Y4465D01*
X2290Y4461D01*
X2300Y4460D01*
X2310Y4461D01*
X2320Y4465D01*
X2328Y4472D01*
X2335Y4480D01*
X2339Y4490D01*
X2340Y4500D01*
X2339Y4510D01*
X2335Y4520D01*
X2328Y4528D01*
X2320Y4535D01*
X2310Y4539D01*
X2300Y4540D01*
D02*
G37*
G36*
X1128Y4535D02*
X1111Y4534D01*
X1095Y4529D01*
X1081Y4521D01*
X1068Y4510D01*
X1057Y4497D01*
X1049Y4483D01*
X1044Y4467D01*
X1043Y4450D01*
X1044Y4433D01*
X1049Y4417D01*
X1057Y4403D01*
X1068Y4390D01*
X1081Y4379D01*
X1095Y4371D01*
X1111Y4366D01*
X1128Y4365D01*
X1145Y4366D01*
X1161Y4371D01*
X1175Y4379D01*
X1188Y4390D01*
X1199Y4403D01*
X1207Y4417D01*
X1212Y4433D01*
X1213Y4450D01*
X1212Y4467D01*
X1207Y4483D01*
X1199Y4497D01*
X1188Y4510D01*
X1175Y4521D01*
X1161Y4529D01*
X1145Y4534D01*
X1128Y4535D01*
D02*
G37*
G36*
X1450Y4840D02*
X1440Y4839D01*
X1430Y4835D01*
X1422Y4828D01*
X1415Y4820D01*
X1411Y4810D01*
X1410Y4800D01*
X1411Y4790D01*
X1415Y4780D01*
X1422Y4772D01*
X1430Y4765D01*
X1440Y4761D01*
X1450Y4760D01*
X1460Y4761D01*
X1470Y4765D01*
X1478Y4772D01*
X1485Y4780D01*
X1489Y4790D01*
X1490Y4800D01*
X1489Y4810D01*
X1485Y4820D01*
X1478Y4828D01*
X1470Y4835D01*
X1460Y4839D01*
X1450Y4840D01*
D02*
G37*
G36*
X1950D02*
X1940Y4839D01*
X1930Y4835D01*
X1922Y4828D01*
X1915Y4820D01*
X1911Y4810D01*
X1910Y4800D01*
X1911Y4790D01*
X1915Y4780D01*
X1922Y4772D01*
X1930Y4765D01*
X1940Y4761D01*
X1950Y4760D01*
X1960Y4761D01*
X1970Y4765D01*
X1978Y4772D01*
X1985Y4780D01*
X1989Y4790D01*
X1990Y4800D01*
X1989Y4810D01*
X1985Y4820D01*
X1978Y4828D01*
X1970Y4835D01*
X1960Y4839D01*
X1950Y4840D01*
D02*
G37*
G36*
X1850D02*
X1840Y4839D01*
X1830Y4835D01*
X1822Y4828D01*
X1815Y4820D01*
X1811Y4810D01*
X1810Y4800D01*
X1811Y4790D01*
X1815Y4780D01*
X1822Y4772D01*
X1830Y4765D01*
X1840Y4761D01*
X1850Y4760D01*
X1860Y4761D01*
X1870Y4765D01*
X1878Y4772D01*
X1885Y4780D01*
X1889Y4790D01*
X1890Y4800D01*
X1889Y4810D01*
X1885Y4820D01*
X1878Y4828D01*
X1870Y4835D01*
X1860Y4839D01*
X1850Y4840D01*
D02*
G37*
G36*
X1750D02*
X1740Y4839D01*
X1730Y4835D01*
X1722Y4828D01*
X1715Y4820D01*
X1711Y4810D01*
X1710Y4800D01*
X1711Y4790D01*
X1715Y4780D01*
X1722Y4772D01*
X1730Y4765D01*
X1740Y4761D01*
X1750Y4760D01*
X1760Y4761D01*
X1770Y4765D01*
X1778Y4772D01*
X1785Y4780D01*
X1789Y4790D01*
X1790Y4800D01*
X1789Y4810D01*
X1785Y4820D01*
X1778Y4828D01*
X1770Y4835D01*
X1760Y4839D01*
X1750Y4840D01*
D02*
G37*
G36*
X2300Y4440D02*
X2290Y4439D01*
X2280Y4435D01*
X2272Y4428D01*
X2265Y4420D01*
X2261Y4410D01*
X2260Y4400D01*
X2261Y4390D01*
X2265Y4380D01*
X2272Y4372D01*
X2280Y4365D01*
X2290Y4361D01*
X2300Y4360D01*
X2310Y4361D01*
X2320Y4365D01*
X2328Y4372D01*
X2335Y4380D01*
X2339Y4390D01*
X2340Y4400D01*
X2339Y4410D01*
X2335Y4420D01*
X2328Y4428D01*
X2320Y4435D01*
X2310Y4439D01*
X2300Y4440D01*
D02*
G37*
G36*
X2029Y3864D02*
X2005D01*
Y3839D01*
X2029D01*
Y3864D01*
D02*
G37*
G36*
X1995D02*
X1971D01*
Y3839D01*
X1995D01*
Y3864D01*
D02*
G37*
G36*
X1131Y3731D02*
X1115Y3729D01*
X1100Y3725D01*
X1086Y3717D01*
X1074Y3707D01*
X1064Y3695D01*
X1056Y3681D01*
X1051Y3666D01*
X1050Y3650D01*
X1051Y3634D01*
X1056Y3619D01*
X1064Y3605D01*
X1074Y3593D01*
X1086Y3583D01*
X1100Y3575D01*
X1115Y3571D01*
X1131Y3569D01*
X1146Y3571D01*
X1162Y3575D01*
X1176Y3583D01*
X1188Y3593D01*
X1198Y3605D01*
X1205Y3619D01*
X1210Y3634D01*
X1212Y3650D01*
X1210Y3666D01*
X1205Y3681D01*
X1198Y3695D01*
X1188Y3707D01*
X1176Y3717D01*
X1162Y3725D01*
X1146Y3729D01*
X1131Y3731D01*
D02*
G37*
G36*
Y4081D02*
X1115Y4079D01*
X1100Y4075D01*
X1086Y4067D01*
X1074Y4057D01*
X1064Y4045D01*
X1056Y4031D01*
X1051Y4016D01*
X1050Y4000D01*
X1051Y3984D01*
X1056Y3969D01*
X1064Y3955D01*
X1074Y3943D01*
X1086Y3933D01*
X1100Y3925D01*
X1115Y3921D01*
X1131Y3919D01*
X1146Y3921D01*
X1162Y3925D01*
X1176Y3933D01*
X1188Y3943D01*
X1198Y3955D01*
X1205Y3969D01*
X1210Y3984D01*
X1212Y4000D01*
X1210Y4016D01*
X1205Y4031D01*
X1198Y4045D01*
X1188Y4057D01*
X1176Y4067D01*
X1162Y4075D01*
X1146Y4079D01*
X1131Y4081D01*
D02*
G37*
G36*
X1775Y4323D02*
X1766Y4322D01*
X1759Y4317D01*
X1754Y4309D01*
X1753Y4301D01*
Y4238D01*
X1754Y4229D01*
X1759Y4222D01*
X1766Y4217D01*
X1775Y4216D01*
X1784Y4217D01*
X1791Y4222D01*
X1796Y4229D01*
X1797Y4238D01*
Y4301D01*
X1796Y4309D01*
X1791Y4317D01*
X1784Y4322D01*
X1775Y4323D01*
D02*
G37*
G36*
X1947Y4076D02*
X1930D01*
Y4028D01*
X1934Y4028D01*
X1941Y4033D01*
X1946Y4041D01*
X1947Y4049D01*
Y4076D01*
D02*
G37*
G36*
X1920D02*
X1903D01*
Y4049D01*
X1904Y4041D01*
X1909Y4033D01*
X1916Y4028D01*
X1920Y4028D01*
Y4076D01*
D02*
G37*
G36*
X1750Y4940D02*
X1740Y4939D01*
X1730Y4935D01*
X1722Y4928D01*
X1715Y4920D01*
X1711Y4910D01*
X1710Y4900D01*
X1711Y4890D01*
X1715Y4880D01*
X1722Y4872D01*
X1730Y4865D01*
X1740Y4861D01*
X1750Y4860D01*
X1760Y4861D01*
X1770Y4865D01*
X1778Y4872D01*
X1785Y4880D01*
X1789Y4890D01*
X1790Y4900D01*
X1789Y4910D01*
X1785Y4920D01*
X1778Y4928D01*
X1770Y4935D01*
X1760Y4939D01*
X1750Y4940D01*
D02*
G37*
G36*
X1850D02*
X1840Y4939D01*
X1830Y4935D01*
X1822Y4928D01*
X1815Y4920D01*
X1811Y4910D01*
X1810Y4900D01*
X1811Y4890D01*
X1815Y4880D01*
X1822Y4872D01*
X1830Y4865D01*
X1840Y4861D01*
X1850Y4860D01*
X1860Y4861D01*
X1870Y4865D01*
X1878Y4872D01*
X1885Y4880D01*
X1889Y4890D01*
X1890Y4900D01*
X1889Y4910D01*
X1885Y4920D01*
X1878Y4928D01*
X1870Y4935D01*
X1860Y4939D01*
X1850Y4940D01*
D02*
G37*
G36*
X1450D02*
X1440Y4939D01*
X1430Y4935D01*
X1422Y4928D01*
X1415Y4920D01*
X1411Y4910D01*
X1410Y4900D01*
X1411Y4890D01*
X1415Y4880D01*
X1422Y4872D01*
X1430Y4865D01*
X1440Y4861D01*
X1450Y4860D01*
X1460Y4861D01*
X1470Y4865D01*
X1478Y4872D01*
X1485Y4880D01*
X1489Y4890D01*
X1490Y4900D01*
X1489Y4910D01*
X1485Y4920D01*
X1478Y4928D01*
X1470Y4935D01*
X1460Y4939D01*
X1450Y4940D01*
D02*
G37*
G36*
X1550D02*
X1540Y4939D01*
X1530Y4935D01*
X1522Y4928D01*
X1515Y4920D01*
X1511Y4910D01*
X1510Y4900D01*
X1511Y4890D01*
X1515Y4880D01*
X1522Y4872D01*
X1530Y4865D01*
X1540Y4861D01*
X1550Y4860D01*
X1560Y4861D01*
X1570Y4865D01*
X1578Y4872D01*
X1585Y4880D01*
X1589Y4890D01*
X1590Y4900D01*
X1589Y4910D01*
X1585Y4920D01*
X1578Y4928D01*
X1570Y4935D01*
X1560Y4939D01*
X1550Y4940D01*
D02*
G37*
G36*
X2150D02*
X2140Y4939D01*
X2130Y4935D01*
X2122Y4928D01*
X2115Y4920D01*
X2111Y4910D01*
X2110Y4900D01*
X2111Y4890D01*
X2115Y4880D01*
X2122Y4872D01*
X2130Y4865D01*
X2140Y4861D01*
X2150Y4860D01*
X2160Y4861D01*
X2170Y4865D01*
X2178Y4872D01*
X2185Y4880D01*
X2189Y4890D01*
X2190Y4900D01*
X2189Y4910D01*
X2185Y4920D01*
X2178Y4928D01*
X2170Y4935D01*
X2160Y4939D01*
X2150Y4940D01*
D02*
G37*
G36*
X2350D02*
X2340Y4939D01*
X2330Y4935D01*
X2322Y4928D01*
X2315Y4920D01*
X2311Y4910D01*
X2310Y4900D01*
X2311Y4890D01*
X2315Y4880D01*
X2322Y4872D01*
X2330Y4865D01*
X2340Y4861D01*
X2350Y4860D01*
X2360Y4861D01*
X2370Y4865D01*
X2378Y4872D01*
X2385Y4880D01*
X2389Y4890D01*
X2390Y4900D01*
X2389Y4910D01*
X2385Y4920D01*
X2378Y4928D01*
X2370Y4935D01*
X2360Y4939D01*
X2350Y4940D01*
D02*
G37*
G36*
X1950D02*
X1940Y4939D01*
X1930Y4935D01*
X1922Y4928D01*
X1915Y4920D01*
X1911Y4910D01*
X1910Y4900D01*
X1911Y4890D01*
X1915Y4880D01*
X1922Y4872D01*
X1930Y4865D01*
X1940Y4861D01*
X1950Y4860D01*
X1960Y4861D01*
X1970Y4865D01*
X1978Y4872D01*
X1985Y4880D01*
X1989Y4890D01*
X1990Y4900D01*
X1989Y4910D01*
X1985Y4920D01*
X1978Y4928D01*
X1970Y4935D01*
X1960Y4939D01*
X1950Y4940D01*
D02*
G37*
G36*
X2050D02*
X2040Y4939D01*
X2030Y4935D01*
X2022Y4928D01*
X2015Y4920D01*
X2011Y4910D01*
X2010Y4900D01*
X2011Y4890D01*
X2015Y4880D01*
X2022Y4872D01*
X2030Y4865D01*
X2040Y4861D01*
X2050Y4860D01*
X2060Y4861D01*
X2070Y4865D01*
X2078Y4872D01*
X2085Y4880D01*
X2089Y4890D01*
X2090Y4900D01*
X2089Y4910D01*
X2085Y4920D01*
X2078Y4928D01*
X2070Y4935D01*
X2060Y4939D01*
X2050Y4940D01*
D02*
G37*
G36*
X1145Y4795D02*
X1110D01*
Y4760D01*
X1145D01*
Y4795D01*
D02*
G37*
G36*
Y4840D02*
X1110D01*
Y4805D01*
X1145D01*
Y4840D01*
D02*
G37*
G36*
X2050Y4840D02*
X2040Y4839D01*
X2030Y4835D01*
X2022Y4828D01*
X2015Y4820D01*
X2011Y4810D01*
X2010Y4800D01*
X2011Y4790D01*
X2015Y4780D01*
X2022Y4772D01*
X2030Y4765D01*
X2040Y4761D01*
X2050Y4760D01*
X2060Y4761D01*
X2070Y4765D01*
X2078Y4772D01*
X2085Y4780D01*
X2089Y4790D01*
X2090Y4800D01*
X2089Y4810D01*
X2085Y4820D01*
X2078Y4828D01*
X2070Y4835D01*
X2060Y4839D01*
X2050Y4840D01*
D02*
G37*
G36*
X2350D02*
X2340Y4839D01*
X2330Y4835D01*
X2322Y4828D01*
X2315Y4820D01*
X2311Y4810D01*
X2310Y4800D01*
X2311Y4790D01*
X2315Y4780D01*
X2322Y4772D01*
X2330Y4765D01*
X2340Y4761D01*
X2350Y4760D01*
X2360Y4761D01*
X2370Y4765D01*
X2378Y4772D01*
X2385Y4780D01*
X2389Y4790D01*
X2390Y4800D01*
X2389Y4810D01*
X2385Y4820D01*
X2378Y4828D01*
X2370Y4835D01*
X2360Y4839D01*
X2350Y4840D01*
D02*
G37*
G36*
X1250Y4940D02*
X1240Y4939D01*
X1230Y4935D01*
X1222Y4928D01*
X1215Y4920D01*
X1211Y4910D01*
X1210Y4900D01*
X1211Y4890D01*
X1215Y4880D01*
X1222Y4872D01*
X1230Y4865D01*
X1240Y4861D01*
X1250Y4860D01*
X1260Y4861D01*
X1270Y4865D01*
X1278Y4872D01*
X1285Y4880D01*
X1289Y4890D01*
X1290Y4900D01*
X1289Y4910D01*
X1285Y4920D01*
X1278Y4928D01*
X1270Y4935D01*
X1260Y4939D01*
X1250Y4940D01*
D02*
G37*
G36*
X1350D02*
X1340Y4939D01*
X1330Y4935D01*
X1322Y4928D01*
X1315Y4920D01*
X1311Y4910D01*
X1310Y4900D01*
X1311Y4890D01*
X1315Y4880D01*
X1322Y4872D01*
X1330Y4865D01*
X1340Y4861D01*
X1350Y4860D01*
X1360Y4861D01*
X1370Y4865D01*
X1378Y4872D01*
X1385Y4880D01*
X1389Y4890D01*
X1390Y4900D01*
X1389Y4910D01*
X1385Y4920D01*
X1378Y4928D01*
X1370Y4935D01*
X1360Y4939D01*
X1350Y4940D01*
D02*
G37*
G36*
X2250D02*
X2240Y4939D01*
X2230Y4935D01*
X2222Y4928D01*
X2215Y4920D01*
X2211Y4910D01*
X2210Y4900D01*
X2211Y4890D01*
X2215Y4880D01*
X2222Y4872D01*
X2227Y4868D01*
X2227Y4862D01*
X2195Y4829D01*
X2191Y4824D01*
X2191Y4823D01*
X2185Y4820D01*
X2185Y4820D01*
X2178Y4828D01*
X2170Y4835D01*
X2160Y4839D01*
X2150Y4840D01*
X2140Y4839D01*
X2130Y4835D01*
X2122Y4828D01*
X2115Y4820D01*
X2111Y4810D01*
X2110Y4800D01*
X2111Y4790D01*
X2113Y4785D01*
X1814Y4486D01*
X1811Y4481D01*
X1810Y4475D01*
Y4317D01*
X1809Y4317D01*
X1804Y4309D01*
X1803Y4301D01*
Y4238D01*
X1804Y4229D01*
X1809Y4222D01*
X1816Y4217D01*
X1825Y4216D01*
X1834Y4217D01*
X1841Y4222D01*
X1846Y4229D01*
X1847Y4238D01*
Y4301D01*
X1846Y4309D01*
X1841Y4317D01*
X1840Y4317D01*
Y4469D01*
X1866Y4495D01*
X1871Y4493D01*
Y4453D01*
X1871Y4452D01*
Y4448D01*
X1871Y4447D01*
Y4411D01*
X1864Y4404D01*
X1861Y4399D01*
X1860Y4394D01*
Y4317D01*
X1859Y4317D01*
X1854Y4309D01*
X1853Y4301D01*
Y4238D01*
X1854Y4229D01*
X1859Y4222D01*
X1866Y4217D01*
X1875Y4216D01*
X1884Y4217D01*
X1885Y4218D01*
X1933Y4171D01*
X1938Y4167D01*
X1944Y4166D01*
X2021D01*
Y4153D01*
X2021Y4152D01*
Y4148D01*
X2021Y4147D01*
Y4134D01*
X1963D01*
X1947Y4150D01*
X1942Y4153D01*
X1936Y4154D01*
X1814D01*
X1808Y4153D01*
X1803Y4150D01*
X1787Y4134D01*
X1786Y4131D01*
X1784Y4133D01*
X1775Y4134D01*
X1766Y4133D01*
X1759Y4128D01*
X1754Y4121D01*
X1753Y4112D01*
Y4080D01*
X1701Y4028D01*
X1695Y4029D01*
X1691Y4037D01*
X1682Y4048D01*
X1672Y4056D01*
X1660Y4062D01*
X1648Y4066D01*
X1635Y4067D01*
X1621Y4066D01*
X1609Y4062D01*
X1597Y4056D01*
X1587Y4048D01*
X1579Y4037D01*
X1572Y4026D01*
X1569Y4013D01*
X1567Y4000D01*
X1569Y3987D01*
X1572Y3974D01*
X1579Y3963D01*
X1587Y3952D01*
X1597Y3944D01*
X1609Y3938D01*
X1621Y3934D01*
X1635Y3933D01*
X1648Y3934D01*
X1660Y3938D01*
X1672Y3944D01*
X1682Y3952D01*
X1691Y3963D01*
X1697Y3974D01*
X1700Y3986D01*
X1705Y3989D01*
X1753Y4036D01*
X1758Y4036D01*
X1759Y4033D01*
X1766Y4028D01*
X1775Y4027D01*
X1784Y4028D01*
X1791Y4033D01*
X1796Y4041D01*
X1797Y4049D01*
Y4077D01*
X1798Y4077D01*
X1803Y4075D01*
Y4049D01*
X1804Y4041D01*
X1809Y4033D01*
X1810Y4033D01*
Y3829D01*
X1789D01*
Y3792D01*
X1690Y3694D01*
X1685Y3694D01*
X1682Y3698D01*
X1672Y3706D01*
X1660Y3712D01*
X1648Y3716D01*
X1635Y3717D01*
X1621Y3716D01*
X1609Y3712D01*
X1597Y3706D01*
X1587Y3698D01*
X1579Y3687D01*
X1572Y3676D01*
X1569Y3663D01*
X1567Y3650D01*
X1568Y3644D01*
X1563Y3641D01*
X1544Y3661D01*
X1539Y3664D01*
X1533Y3665D01*
X1485D01*
Y3717D01*
X1351D01*
Y3583D01*
X1485D01*
Y3635D01*
X1526D01*
X1594Y3567D01*
X1599Y3564D01*
X1605Y3563D01*
X1665D01*
X1670Y3564D01*
X1675Y3567D01*
X1879Y3771D01*
X1911D01*
Y3829D01*
X1890D01*
Y4033D01*
X1891Y4033D01*
X1896Y4041D01*
X1897Y4049D01*
Y4112D01*
X1897Y4115D01*
X1900Y4120D01*
X1903Y4115D01*
X1903Y4112D01*
Y4086D01*
X1925D01*
X1947D01*
Y4101D01*
X1950Y4103D01*
X1952Y4104D01*
X1956Y4103D01*
X2021D01*
Y4089D01*
X2035D01*
Y3988D01*
X2008Y3961D01*
X1971D01*
Y3903D01*
X1971Y3902D01*
Y3898D01*
X1971Y3897D01*
Y3874D01*
X2000D01*
X2029D01*
Y3897D01*
X2029Y3898D01*
Y3902D01*
X2029Y3903D01*
Y3939D01*
X2061Y3971D01*
X2064Y3976D01*
X2065Y3981D01*
Y4089D01*
X2079D01*
Y4103D01*
X2171D01*
Y4089D01*
X2229D01*
Y4147D01*
X2229Y4148D01*
Y4152D01*
X2229Y4153D01*
Y4211D01*
X2192D01*
X2140Y4263D01*
X2135Y4266D01*
X2129Y4268D01*
X1947D01*
Y4294D01*
X2042Y4389D01*
X2079D01*
Y4447D01*
X2079Y4448D01*
Y4452D01*
X2079Y4453D01*
Y4511D01*
X2065D01*
Y4594D01*
X2235Y4763D01*
X2240Y4761D01*
X2250Y4760D01*
X2260Y4761D01*
X2270Y4765D01*
X2278Y4772D01*
X2285Y4780D01*
X2289Y4790D01*
X2290Y4800D01*
X2289Y4810D01*
X2285Y4820D01*
X2278Y4828D01*
X2270Y4835D01*
X2260Y4839D01*
X2255Y4839D01*
X2253Y4844D01*
X2261Y4852D01*
X2264Y4857D01*
X2265Y4863D01*
Y4864D01*
X2270Y4865D01*
X2278Y4872D01*
X2285Y4880D01*
X2289Y4890D01*
X2290Y4900D01*
X2289Y4910D01*
X2285Y4920D01*
X2278Y4928D01*
X2270Y4935D01*
X2260Y4939D01*
X2250Y4940D01*
D02*
G37*
G36*
X1650D02*
X1640Y4939D01*
X1630Y4935D01*
X1622Y4928D01*
X1615Y4920D01*
X1611Y4910D01*
X1610Y4900D01*
X1611Y4890D01*
X1615Y4880D01*
X1622Y4872D01*
X1627Y4868D01*
X1627Y4862D01*
X1595Y4829D01*
X1591Y4824D01*
X1591Y4823D01*
X1585Y4820D01*
X1585Y4820D01*
X1578Y4828D01*
X1570Y4835D01*
X1560Y4839D01*
X1550Y4840D01*
X1540Y4839D01*
X1530Y4835D01*
X1522Y4828D01*
X1515Y4820D01*
X1511Y4810D01*
X1510Y4800D01*
X1511Y4790D01*
X1515Y4780D01*
X1522Y4772D01*
X1530Y4765D01*
X1540Y4761D01*
X1550Y4760D01*
X1560Y4761D01*
X1570Y4765D01*
X1578Y4772D01*
X1585Y4780D01*
X1585Y4782D01*
X1590Y4781D01*
Y4664D01*
X1591Y4658D01*
X1595Y4653D01*
X1642Y4606D01*
X1639Y4601D01*
X1632Y4602D01*
X1618Y4601D01*
X1605Y4597D01*
X1595Y4591D01*
X1389Y4797D01*
X1390Y4800D01*
X1389Y4810D01*
X1385Y4820D01*
X1378Y4828D01*
X1370Y4835D01*
X1360Y4839D01*
X1350Y4840D01*
X1340Y4839D01*
X1330Y4835D01*
X1322Y4828D01*
X1315Y4820D01*
X1311Y4810D01*
X1310Y4800D01*
X1311Y4790D01*
X1315Y4780D01*
X1322Y4772D01*
X1330Y4765D01*
X1340Y4761D01*
X1350Y4760D01*
X1360Y4761D01*
X1370Y4765D01*
X1374Y4769D01*
X1573Y4570D01*
X1568Y4559D01*
X1564Y4546D01*
X1563Y4533D01*
X1564Y4519D01*
X1565Y4517D01*
X1560Y4514D01*
X1287Y4787D01*
X1289Y4790D01*
X1290Y4800D01*
X1289Y4810D01*
X1285Y4820D01*
X1278Y4828D01*
X1270Y4835D01*
X1260Y4839D01*
X1250Y4840D01*
X1240Y4839D01*
X1230Y4835D01*
X1222Y4828D01*
X1215Y4820D01*
X1215Y4818D01*
X1210Y4819D01*
Y4857D01*
X1209Y4863D01*
X1205Y4868D01*
X1187Y4886D01*
X1189Y4890D01*
X1190Y4900D01*
X1189Y4910D01*
X1185Y4920D01*
X1178Y4928D01*
X1170Y4935D01*
X1160Y4939D01*
X1150Y4940D01*
X1140Y4939D01*
X1130Y4935D01*
X1122Y4928D01*
X1115Y4920D01*
X1111Y4910D01*
X1110Y4900D01*
X1111Y4890D01*
X1115Y4880D01*
X1122Y4872D01*
X1130Y4865D01*
X1140Y4861D01*
X1150Y4860D01*
X1160Y4861D01*
X1166Y4864D01*
X1179Y4851D01*
Y4840D01*
X1155D01*
Y4800D01*
Y4760D01*
X1179D01*
Y4588D01*
X1180Y4582D01*
X1184Y4577D01*
X1346Y4415D01*
Y4298D01*
X1484D01*
Y4436D01*
X1368D01*
X1210Y4594D01*
Y4781D01*
X1215Y4782D01*
X1215Y4780D01*
X1222Y4772D01*
X1230Y4765D01*
X1240Y4761D01*
X1250Y4760D01*
X1260Y4761D01*
X1267Y4764D01*
X1425Y4606D01*
X1423Y4601D01*
X1415Y4602D01*
X1402Y4601D01*
X1389Y4597D01*
X1377Y4590D01*
X1366Y4582D01*
X1358Y4571D01*
X1351Y4559D01*
X1347Y4546D01*
X1346Y4533D01*
X1347Y4519D01*
X1351Y4506D01*
X1358Y4494D01*
X1366Y4484D01*
X1377Y4475D01*
X1389Y4469D01*
X1402Y4465D01*
X1415Y4463D01*
X1429Y4465D01*
X1442Y4469D01*
X1454Y4475D01*
X1464Y4484D01*
X1473Y4494D01*
X1479Y4506D01*
X1483Y4519D01*
X1485Y4533D01*
X1484Y4540D01*
X1489Y4542D01*
X1599Y4432D01*
X1598Y4427D01*
X1593Y4425D01*
X1583Y4416D01*
X1574Y4406D01*
X1568Y4394D01*
X1564Y4381D01*
X1563Y4367D01*
X1564Y4354D01*
X1568Y4341D01*
X1574Y4329D01*
X1583Y4318D01*
X1593Y4310D01*
X1605Y4303D01*
X1618Y4299D01*
X1632Y4298D01*
X1645Y4299D01*
X1658Y4303D01*
X1670Y4310D01*
X1681Y4318D01*
X1686Y4324D01*
X1691Y4322D01*
Y4300D01*
X1458Y4067D01*
X1351D01*
Y3933D01*
X1485D01*
Y4051D01*
X1717Y4282D01*
X1720Y4287D01*
X1721Y4293D01*
Y4563D01*
X1720Y4569D01*
X1717Y4574D01*
X1621Y4670D01*
Y4766D01*
X1626Y4769D01*
X1630Y4765D01*
X1640Y4761D01*
X1650Y4760D01*
X1660Y4761D01*
X1670Y4765D01*
X1678Y4772D01*
X1685Y4780D01*
X1689Y4790D01*
X1690Y4800D01*
X1689Y4810D01*
X1685Y4820D01*
X1678Y4828D01*
X1670Y4835D01*
X1660Y4839D01*
X1655Y4839D01*
X1653Y4844D01*
X1661Y4852D01*
X1664Y4857D01*
X1665Y4863D01*
Y4864D01*
X1670Y4865D01*
X1678Y4872D01*
X1685Y4880D01*
X1689Y4890D01*
X1690Y4900D01*
X1689Y4910D01*
X1685Y4920D01*
X1678Y4928D01*
X1670Y4935D01*
X1660Y4939D01*
X1650Y4940D01*
D02*
G37*
%LPD*%
D10*
X1925Y4269D02*
D03*
X1875D02*
D03*
X1825D02*
D03*
X1775D02*
D03*
X1925Y4081D02*
D03*
X1875D02*
D03*
X1825D02*
D03*
X1775D02*
D03*
D11*
X2050Y4181D02*
D03*
Y4119D02*
D03*
X2200Y4181D02*
D03*
Y4119D02*
D03*
X2000Y3931D02*
D03*
Y3869D02*
D03*
X1900Y4419D02*
D03*
Y4481D02*
D03*
X2050Y4419D02*
D03*
Y4481D02*
D03*
D12*
X1819Y3800D02*
D03*
X1881D02*
D03*
D13*
X1775Y4081D02*
X1798Y4104D01*
Y4123D01*
X1814Y4139D01*
X1936D01*
X1956Y4119D01*
X2050D01*
X1694Y4000D02*
X1775Y4081D01*
X1635Y4000D02*
X1694D01*
X1875Y4269D02*
Y4394D01*
Y4250D02*
Y4269D01*
Y4250D02*
X1944Y4181D01*
X2050D01*
X1875Y3806D02*
X1881Y3800D01*
X1875Y3806D02*
Y4081D01*
X1819Y3800D02*
X1825Y3806D01*
Y4081D01*
X1650Y4863D02*
Y4900D01*
X1605Y4818D02*
X1650Y4863D01*
X1605Y4664D02*
Y4818D01*
Y4664D02*
X1706Y4563D01*
Y4293D02*
Y4563D01*
X1418Y4005D02*
X1706Y4293D01*
X1418Y4000D02*
Y4005D01*
X1875Y4394D02*
X1900Y4419D01*
X1925Y4252D02*
Y4294D01*
X2050Y4419D01*
Y4481D02*
Y4600D01*
X2250Y4800D01*
X1900Y4481D02*
X2205Y4787D01*
Y4818D01*
X2250Y4863D01*
Y4900D01*
X1825Y4252D02*
Y4475D01*
X2150Y4800D01*
X1925Y4252D02*
X2129D01*
X2200Y4181D01*
X2050Y4119D02*
X2200D01*
X2050Y3981D02*
Y4119D01*
X2000Y3931D02*
X2050Y3981D01*
X1635Y3650D02*
X1669D01*
X1819Y3800D01*
X1418Y3650D02*
X1533D01*
X1605Y3578D01*
X1665D01*
X1881Y3795D01*
Y3800D01*
X1350Y4800D02*
X1365D01*
X1632Y4533D01*
X1250Y4800D02*
X1253D01*
X1632Y4421D01*
Y4367D02*
Y4421D01*
X1195Y4588D02*
X1415Y4367D01*
X1150Y4900D02*
X1152D01*
X1195Y4857D01*
Y4588D02*
Y4857D01*
D14*
X2300Y4400D02*
D03*
Y4500D02*
D03*
X1150Y4900D02*
D03*
X1250Y4800D02*
D03*
Y4900D02*
D03*
X1350Y4800D02*
D03*
Y4900D02*
D03*
X1450Y4800D02*
D03*
Y4900D02*
D03*
X1550Y4800D02*
D03*
Y4900D02*
D03*
X1650Y4800D02*
D03*
Y4900D02*
D03*
X1750Y4800D02*
D03*
Y4900D02*
D03*
X1850Y4800D02*
D03*
Y4900D02*
D03*
X1950Y4800D02*
D03*
Y4900D02*
D03*
X2050Y4800D02*
D03*
Y4900D02*
D03*
X2150Y4800D02*
D03*
Y4900D02*
D03*
X2250Y4800D02*
D03*
Y4900D02*
D03*
X2350Y4800D02*
D03*
Y4900D02*
D03*
D15*
X2300Y4600D02*
D03*
D16*
X1128Y4450D02*
D03*
D17*
X1415Y4367D02*
D03*
D18*
X1632D02*
D03*
X1415Y4533D02*
D03*
X1632D02*
D03*
D19*
X1131Y4000D02*
D03*
Y3650D02*
D03*
D20*
X1418Y4000D02*
D03*
Y3650D02*
D03*
D21*
X1635Y4000D02*
D03*
Y3650D02*
D03*
D22*
X1150Y4800D02*
D03*
M02*
