G04 Layer_Color=32896*
%FSLAX23Y23*%
%MOIN*%
G70*
G01*
G75*
%ADD13C,0.010*%
D13*
X2140Y4704D02*
Y4644D01*
X2100D01*
X2040Y4694D02*
X2050Y4704D01*
X2070D01*
X2080Y4694D01*
Y4654D01*
X2070Y4644D01*
X2050D01*
X2040Y4654D01*
X2020Y4704D02*
Y4644D01*
X1990D01*
X1980Y4654D01*
Y4694D01*
X1990Y4704D01*
X2020D01*
X1900Y4644D02*
Y4704D01*
X1870D01*
X1860Y4694D01*
Y4674D01*
X1870Y4664D01*
X1900D01*
X1840Y4644D02*
X1820D01*
X1830D01*
Y4684D01*
X1840D01*
X1790Y4644D02*
Y4684D01*
X1760D01*
X1750Y4674D01*
Y4644D01*
X1730D02*
X1700D01*
X1690Y4654D01*
X1700Y4664D01*
X1720D01*
X1730Y4674D01*
X1720Y4684D01*
X1690D01*
X2140Y4548D02*
X2120D01*
X2130D01*
Y4608D01*
X2140Y4598D01*
X2030Y4578D02*
X1990D01*
X1910D02*
X1870D01*
X1890Y4598D02*
Y4558D01*
X1810Y4608D02*
X1850D01*
Y4578D01*
X1830Y4588D01*
X1820D01*
X1810Y4578D01*
Y4558D01*
X1820Y4548D01*
X1840D01*
X1850Y4558D01*
X1790Y4608D02*
Y4568D01*
X1770Y4548D01*
X1750Y4568D01*
Y4608D01*
X2100Y4452D02*
X2140D01*
X2100Y4492D01*
Y4502D01*
X2110Y4512D01*
X2130D01*
X2140Y4502D01*
X2020Y4482D02*
X1980D01*
X1860Y4502D02*
X1870Y4512D01*
X1890D01*
X1900Y4502D01*
Y4462D01*
X1890Y4452D01*
X1870D01*
X1860Y4462D01*
Y4482D01*
X1880D01*
X1840Y4452D02*
Y4492D01*
X1810D01*
X1800Y4482D01*
Y4452D01*
X1740Y4512D02*
Y4452D01*
X1770D01*
X1780Y4462D01*
Y4482D01*
X1770Y4492D01*
X1740D01*
X2140Y4406D02*
X2130Y4416D01*
X2110D01*
X2100Y4406D01*
Y4396D01*
X2110Y4386D01*
X2120D01*
X2110D01*
X2100Y4376D01*
Y4366D01*
X2110Y4356D01*
X2130D01*
X2140Y4366D01*
X2020Y4386D02*
X1980D01*
X1860Y4406D02*
X1870Y4416D01*
X1890D01*
X1900Y4406D01*
Y4396D01*
X1890Y4386D01*
X1870D01*
X1860Y4376D01*
Y4366D01*
X1870Y4356D01*
X1890D01*
X1900Y4366D01*
X1840Y4416D02*
Y4356D01*
X1810D01*
X1800Y4366D01*
Y4406D01*
X1810Y4416D01*
X1840D01*
X1780Y4356D02*
Y4396D01*
X1760Y4416D01*
X1740Y4396D01*
Y4356D01*
Y4386D01*
X1780D01*
X2110Y4260D02*
Y4320D01*
X2140Y4290D01*
X2100D01*
X2020D02*
X1980D01*
X1860Y4310D02*
X1870Y4320D01*
X1890D01*
X1900Y4310D01*
Y4300D01*
X1890Y4290D01*
X1870D01*
X1860Y4280D01*
Y4270D01*
X1870Y4260D01*
X1890D01*
X1900Y4270D01*
X1800Y4310D02*
X1810Y4320D01*
X1830D01*
X1840Y4310D01*
Y4270D01*
X1830Y4260D01*
X1810D01*
X1800Y4270D01*
X1780Y4320D02*
Y4260D01*
X1740D01*
X2214Y4280D02*
X2228Y4294D01*
X2242D01*
X2270Y4265D01*
Y4251D01*
X2256Y4237D01*
X2242D01*
X2214Y4265D01*
Y4280D01*
X2207Y4244D02*
X2221Y4202D01*
X2178Y4216D01*
X2171Y4152D02*
X2186Y4167D01*
Y4181D01*
X2171Y4195D01*
X2157D01*
X2143Y4181D01*
Y4167D01*
X2150Y4159D01*
X2178Y4188D01*
X2150Y4131D02*
X2122Y4159D01*
X2101Y4138D01*
Y4124D01*
X2122Y4103D01*
X2065Y4046D02*
X2023Y4089D01*
X2002Y4068D01*
Y4053D01*
X2016Y4039D01*
X2030D01*
X2051Y4060D01*
X2023Y4004D02*
X2009Y3990D01*
X2016Y3997D01*
X1988Y4025D01*
X1995Y4032D01*
X1917Y3954D02*
X1931Y3912D01*
X1889Y3926D01*
X1903Y3884D02*
X1889Y3870D01*
X1896Y3877D01*
X1853Y3919D01*
X1867D01*
X2347Y4189D02*
X2318Y4217D01*
X2290D01*
X2290Y4189D01*
X2318Y4161D01*
X2297Y4182D01*
X2326Y4210D01*
X2219Y4147D02*
X2262Y4104D01*
X2241Y4126D01*
X2212Y4097D01*
X2191Y4118D01*
X2234Y4076D01*
X2191Y4090D02*
X2212Y4069D01*
Y4055D01*
X2191Y4034D01*
X2163Y4062D01*
X2177Y3991D02*
X2170Y3984D01*
X2156Y3984D01*
X2121Y4019D01*
X2142Y4041D01*
X2156D01*
X2170Y4027D01*
Y4012D01*
X2149Y3991D01*
X2092Y4019D02*
X2135Y3977D01*
X2113Y3998D01*
X2099D01*
X2085Y3984D01*
Y3970D01*
X2106Y3949D01*
X2071Y3913D02*
X2085Y3928D01*
Y3942D01*
X2071Y3956D01*
X2057D01*
X2043Y3942D01*
Y3928D01*
X2050Y3921D01*
X2078Y3949D01*
X2050Y3892D02*
X2029Y3871D01*
X2014D01*
X2014Y3885D01*
X2029Y3899D01*
Y3913D01*
X2014D01*
X1993Y3892D01*
X1937Y3779D02*
X1965Y3807D01*
X1908D01*
X1901Y3814D01*
Y3829D01*
X1916Y3843D01*
X1930D01*
X1887Y3800D02*
X1873D01*
X1859Y3786D01*
Y3772D01*
X1887Y3744D01*
X1901D01*
X1916Y3758D01*
Y3772D01*
X1887Y3800D01*
X1880Y3723D02*
X1866Y3708D01*
X1873Y3716D01*
X1831Y3758D01*
X1845D01*
X1774Y3701D02*
X1795Y3708D01*
X1824D01*
X1838Y3694D01*
Y3680D01*
X1824Y3666D01*
X1809D01*
X1802Y3673D01*
Y3687D01*
X1824Y3708D01*
M02*
