M48
;Layer_Color=9474304
;FILE_FORMAT=2:3
INCH,LZ
;TYPE=PLATED
T1F00S00C0.035
T2F00S00C0.071
T3F00S00C0.075
T4F00S00C0.120
T5F00S00C0.126
%
T01
X023Y044
Y045
Y046
X0225Y048
X0215
X0205
X0195
X0185
X0175
X0165
Y049
X0175
X0185
X0195
X0205
X0215
X0225
X0235
Y048
X0155
X0145
X0135
X0125
X0115
Y049
X0125
X0135
X0145
X0155
T02
X01415Y04367
Y04533
X01632
Y04367
T03
X01418Y0365
Y04
X01635
Y0365
T04
X01128Y0445
T05
X01131Y0365
Y04
M30
